<?xml version="1.0" encoding="UTF-8"?>
<svg width="93px" height="19px" viewBox="0 0 93 19" version="1.1" xmlns="http://www.w3.org/2000/svg" xmlns:xlink="http://www.w3.org/1999/xlink">
    <title>Group 2</title>
    <defs>
        <path d="M28.5197333,0.3936 L24.6709333,18.3853333 L20.016,18.3853333 L23.8664,0.3936 L28.5197333,0.3936 Z M48.1016,12.0104 L50.5517333,5.25493333 L51.9621333,12.0104 L48.1016,12.0104 Z M53.2952,18.3853333 L57.6,18.3853333 L53.8424,0.3936 L49.8698667,0.3936 C48.9762667,0.3936 48.2229333,0.9128 47.8885333,1.71306667 L40.9048,18.3853333 L45.7909333,18.3853333 L46.7618667,15.6973333 L52.7328,15.6973333 L53.2952,18.3853333 Z M41.1466667,12.5106667 C41.1674667,7.76266667 34.5808,7.50053333 34.6261333,5.37893333 C34.6405333,4.73386667 35.2549333,4.048 36.6002667,3.87226667 C37.2661333,3.78533333 39.1053333,3.71786667 41.1888,4.67706667 L42.0066667,0.862133333 C40.8858667,0.455466667 39.4456,0.0645333333 37.652,0.0645333333 C33.052,0.0645333333 29.8136,2.5104 29.7877333,6.01146667 C29.7570667,8.60293333 32.0986667,10.0469333 33.8629333,10.9085333 C35.6754667,11.7901333 36.2834667,12.3557333 36.2768,13.1442667 C36.2632,14.352 34.8304,14.8842667 33.4909333,14.9050667 C31.1509333,14.9416 29.7928,14.2725333 28.7106667,13.7682667 L27.868,17.7109333 C28.9544,18.2101333 30.9618667,18.6453333 33.0437333,18.6666667 C37.9336,18.6666667 41.1314667,16.2522667 41.1466667,12.5106667 L41.1466667,12.5106667 Z M21.8690667,0.3936 L14.328,18.3853333 L9.40826667,18.3853333 L5.69733333,4.02666667 C5.472,3.14266667 5.27653333,2.81813333 4.59146667,2.4464 C3.4728,1.83866667 1.62533333,1.26906667 0,0.9152 L0.1096,0.3936 L8.02986667,0.3936 C9.03866667,0.3936 9.94693333,1.0648 10.176,2.22773333 L12.136,12.6392 L16.9802667,0.3936 L21.8690667,0.3936 L21.8690667,0.3936 Z" id="path-1"></path>
        <linearGradient x1="0%" y1="50.0001434%" x2="100%" y2="50.0001434%" id="linearGradient-3">
            <stop stop-color="#1D1C45" offset="0%"></stop>
            <stop stop-color="#174489" offset="100%"></stop>
        </linearGradient>
    </defs>
    <g id="Getting-started" stroke="none" stroke-width="1" fill="none" fill-rule="evenodd">
        <g id="Artboard" transform="translate(-64.000000, -70.000000)">
            <g id="Group-2" transform="translate(64.000000, 70.000000)">
                <g id="vbm_blugrad01">
                    <mask id="mask-2" fill="white">
                        <use xlink:href="#path-1"></use>
                    </mask>
                    <g id="path-1"></g>
                    <path d="M28.5197333,0.3936 L24.6709333,18.3853333 L20.016,18.3853333 L23.8664,0.3936 L28.5197333,0.3936 Z M48.1016,12.0104 L50.5517333,5.25493333 L51.9621333,12.0104 L48.1016,12.0104 Z M53.2952,18.3853333 L57.6,18.3853333 L53.8424,0.3936 L49.8698667,0.3936 C48.9762667,0.3936 48.2229333,0.9128 47.8885333,1.71306667 L40.9048,18.3853333 L45.7909333,18.3853333 L46.7618667,15.6973333 L52.7328,15.6973333 L53.2952,18.3853333 Z M41.1466667,12.5106667 C41.1674667,7.76266667 34.5808,7.50053333 34.6261333,5.37893333 C34.6405333,4.73386667 35.2549333,4.048 36.6002667,3.87226667 C37.2661333,3.78533333 39.1053333,3.71786667 41.1888,4.67706667 L42.0066667,0.862133333 C40.8858667,0.455466667 39.4456,0.0645333333 37.652,0.0645333333 C33.052,0.0645333333 29.8136,2.5104 29.7877333,6.01146667 C29.7570667,8.60293333 32.0986667,10.0469333 33.8629333,10.9085333 C35.6754667,11.7901333 36.2834667,12.3557333 36.2768,13.1442667 C36.2632,14.352 34.8304,14.8842667 33.4909333,14.9050667 C31.1509333,14.9416 29.7928,14.2725333 28.7106667,13.7682667 L27.868,17.7109333 C28.9544,18.2101333 30.9618667,18.6453333 33.0437333,18.6666667 C37.9336,18.6666667 41.1314667,16.2522667 41.1466667,12.5106667 L41.1466667,12.5106667 Z M21.8690667,0.3936 L14.328,18.3853333 L9.40826667,18.3853333 L5.69733333,4.02666667 C5.472,3.14266667 5.27653333,2.81813333 4.59146667,2.4464 C3.4728,1.83866667 1.62533333,1.26906667 0,0.9152 L0.1096,0.3936 L8.02986667,0.3936 C9.03866667,0.3936 9.94693333,1.0648 10.176,2.22773333 L12.136,12.6392 L16.9802667,0.3936 L21.8690667,0.3936 L21.8690667,0.3936 Z" id="Fill-1" fill="url(#linearGradient-3)" fill-rule="nonzero" mask="url(#mask-2)"></path>
                </g>
                <g id="Group" transform="translate(61.803922, 0.000000)" fill-rule="nonzero">
                    <g id="_Group_" transform="translate(0.062745, 0.000000)">
                        <rect id="Rectangle" fill="#FF5F00" x="10.8872934" y="2.00730594" width="8.04102564" height="14.4756164"></rect>
                        <path d="M11.3978348,9.24639269 C11.3948283,6.4212035 12.6892091,3.75162775 14.9078063,2.00730594 C11.1399579,-0.958890869 5.72917648,-0.526838653 2.47801382,2.9998279 C-0.773148835,6.52649445 -0.773148835,11.9637339 2.47801382,15.4904004 C5.72917648,19.017067 11.1399579,19.4491192 14.9078063,16.4829224 C12.6899149,14.7391543 11.3956132,12.0706846 11.3978348,9.24639269 L11.3978348,9.24639269 Z" id="_Path_" fill="#EB001B"></path>
                        <path d="M29.7773219,9.24639269 C29.7773219,12.7709101 27.7681941,15.9859928 24.6034338,17.5261829 C21.4386736,19.066373 17.6738144,18.6612699 14.9078063,16.4829224 C17.1247299,14.7376739 18.419129,12.0695589 18.419129,9.24511416 C18.419129,6.42066939 17.1247299,3.75255442 14.9078063,2.00730594 C17.6738144,-0.171041599 21.4386736,-0.576144729 24.6034338,0.9640454 C27.7681941,2.50423553 29.7773219,5.71931826 29.7773219,9.24383562 L29.7773219,9.24639269 Z" id="Path" fill="#F79E1B"></path>
                        <path d="M28.9530198,15.5835927 L28.9530198,14.7608977 L29.1081353,14.7608977 L29.1081353,14.5906849 L28.715396,14.5906849 L28.715396,14.7608977 L28.8837128,14.7608977 L28.8837128,15.5835927 L28.9530198,15.5835927 Z M29.715396,15.5835927 L29.715396,14.5906849 L29.5965841,14.5906849 L29.4579703,15.2999048 L29.3193564,14.5906849 L29.2137458,14.5906849 L29.2137458,15.5835927 L29.2995544,15.5835927 L29.2995544,14.8389119 L29.4282673,15.484302 L29.5173762,15.484302 L29.6460891,14.8389119 L29.6460891,15.5906849 L29.715396,15.5835927 Z" id="Shape" fill="#F79E1B"></path>
                    </g>
                </g>
            </g>
        </g>
    </g>
</svg>