<?xml version="1.0" encoding="UTF-8"?>
<svg width="102px" height="33px" viewBox="0 0 102 33" version="1.1" xmlns="http://www.w3.org/2000/svg" xmlns:xlink="http://www.w3.org/1999/xlink">
    <title>Debit Card</title>
    <g id="Dashboard" stroke="none" stroke-width="1" fill="none" fill-rule="evenodd">
        <g id="Debit-Card" transform="translate(0.078511, 0.814500)" fill-rule="nonzero">
            <path d="M72.6835864,0.411173893 L73.6818074,0.411173893 C73.7047221,0.445545921 73.7405263,0.428837296 73.7710792,0.430269464 C76.2736694,0.548916036 78.6768488,1.44560236 80.6454848,2.99528205 L80.6454848,3.01055851 C76.997773,5.88474544 75.3177096,10.5935981 76.3222475,15.1276531 C76.7110172,16.8855209 77.4902578,18.5334124 78.6022587,19.9492848 C79.1997064,20.7121417 79.8857586,21.4012387 80.6459622,22.0020587 L80.6459622,22.015903 C80.6111128,22.0416821 80.5767408,22.063642 80.5438009,22.0913305 C77.9963871,24.0486326 74.7744261,24.910983 71.5898876,24.4878247 C70.4168108,24.3375801 69.2730498,24.011527 68.197082,23.520634 C66.095431,22.5737018 64.3107271,21.0418959 63.0560769,19.1081249 C61.9404273,17.4148332 61.2764964,15.4642894 61.1274242,13.4419916 C61.0611419,12.5933686 61.0851459,11.7401065 61.1990326,10.896552 C61.3486598,9.72628351 61.6755989,8.58561877 62.1686102,7.51377156 C63.4355979,4.70101272 65.7362693,2.48358866 68.5937925,1.32107786 C69.7881611,0.822085336 71.0575122,0.526166957 72.3494139,0.445545921 C72.4619213,0.451822393 72.5747124,0.440221029 72.6835864,0.411173893 L72.6835864,0.411173893 Z" id="Path_173" fill="#EA001B"></path>
            <path d="M80.6411883,3.01008112 L80.6411883,2.99480466 C80.6755603,2.96902564 80.7089776,2.94706573 80.7419174,2.91937716 C81.8319249,2.08052808 83.0576156,1.43466286 84.3657794,1.00982005 C85.4129381,0.666720248 86.5027906,0.471179851 87.6039109,0.428837296 L88.5854233,0.428837296 C88.8886808,0.435296409 89.1914158,0.4571252 89.4924629,0.494239627 C90.5680025,0.612707642 91.621742,0.880721894 92.6231818,1.29052494 C95.4480171,2.41929828 97.7389952,4.57838348 99.0330876,7.33140886 C99.6208756,8.55100764 99.9907017,9.86405992 100.125832,11.2111515 C100.144927,11.3925594 100.163068,11.5730126 100.180731,11.7544205 L100.180731,13.2596289 C100.173732,13.2848326 100.168626,13.310524 100.165455,13.3364886 C100.150179,13.6038266 100.12058,13.8683002 100.086208,14.1327739 C99.9461369,15.2015296 99.6588903,16.2457707 99.2326363,17.2358042 C97.4164904,21.4982303 93.3252432,24.3488292 88.6976098,24.5761417 C87.821219,24.6213645 86.9425171,24.5690075 86.0776974,24.4200354 C84.5722439,24.1646849 83.1292749,23.6246651 81.8260685,22.828897 C81.4159911,22.5796998 81.0273962,22.3013818 80.6440526,22.0149483 L80.6440526,22.001104 C81.9893139,20.9407027 83.0955221,19.6082099 83.8902997,18.0908084 C84.6800863,16.5800741 85.1393222,14.918558 85.2374923,13.2166639 C85.2625674,12.8167698 85.265914,12.4158093 85.2475174,12.0155524 C85.2279497,11.564278 85.1852468,11.1143044 85.1195771,10.6674051 C84.7491848,8.25192001 83.6537475,6.00594074 81.9783557,4.22694639 C81.5663514,3.78575301 81.1191555,3.37879038 80.6411883,3.01008112 L80.6411883,3.01008112 Z" id="Path_174" fill="#0098DE"></path>
            <polygon id="Path_175" fill="#6C6BBC" points="87.6020014 0.427405128 87.584338 0.409741725 88.6016545 0.409741725 88.5835137 0.427405128"></polygon>
            <path d="M80.6416657,3.01055851 C81.1181846,3.37975458 81.5639395,3.78703276 81.9745366,4.22837855 C83.6512084,6.00648829 84.7468507,8.25288821 85.115758,10.6688373 C85.1814277,11.1157366 85.2241306,11.5657102 85.2436983,12.0169846 C85.2620949,12.4172415 85.2587483,12.818202 85.2336732,13.218096 C85.1355031,14.9199901 84.6762672,16.5815063 83.8864806,18.0922406 C83.091703,19.609642 81.9854948,20.9421349 80.6402335,22.0025361 C79.8800299,21.4017161 79.1939777,20.712619 78.59653,19.9497622 C75.3298973,15.7733255 75.1670881,9.95536622 78.1950456,5.60278228 C78.8753258,4.6203765 79.7001815,3.74643188 80.6416657,3.01055851 L80.6416657,3.01055851 Z" id="Path_176" fill="#6C6BBC"></path>
            <path d="M68.171303,27.8543739 C68.3991377,27.5167458 68.7951508,27.332981 69.2000769,27.3769846 C69.6003378,27.3883184 69.9673165,27.6025692 70.173951,27.9455552 L70.2045039,27.9006807 C70.4914967,27.4905712 70.9941928,27.2894552 71.484862,27.388442 C72.1169281,27.4323687 72.5963736,27.9760522 72.5608974,28.608649 C72.5699678,29.2707879 72.5608974,29.9314946 72.5656713,30.5931562 C72.5656713,30.6595133 72.5403697,30.6661967 72.4864247,30.6647646 C72.3059715,30.6623776 72.1274279,30.6595133 71.948407,30.6647646 C71.8753664,30.6647646 71.8562708,30.6480559 71.857703,30.5740606 C71.8600899,30.0207664 71.857703,29.4660401 71.857703,28.9127459 C71.8601232,28.7824886 71.8463321,28.6524361 71.8166475,28.5255832 C71.7511455,28.2104776 71.4567178,27.9968934 71.1368452,28.0324401 C70.9315062,28.022957 70.7316662,28.1003813 70.5863148,28.2457326 C70.4409635,28.3910839 70.3635393,28.590924 70.3730223,28.7962629 C70.3629972,29.3829744 70.3677711,29.9692084 70.3706354,30.5559198 C70.3706354,30.6389855 70.3539268,30.6671515 70.264655,30.6633324 C70.0932722,30.6556942 69.9195025,30.6571263 69.747165,30.6633324 C69.6779435,30.6657193 69.6617123,30.6466238 69.6617123,30.5778797 C69.6655314,30.0307916 69.6645767,29.4827487 69.6617123,28.9356606 C69.668957,28.7692499 69.6456578,28.6029197 69.5929683,28.4449044 C69.5181315,28.2109516 69.3055822,28.0483018 69.0602018,28.037214 C68.8341946,27.9940818 68.6009748,28.0583971 68.4290217,28.2112755 C68.2570686,28.3641539 68.1658991,28.5882433 68.1822829,28.8177455 C68.1746447,29.4006378 68.1784638,29.9844848 68.1822829,30.5673772 C68.1822829,30.6428047 68.1641422,30.6671515 68.0868051,30.662855 C67.9077841,30.656649 67.7278084,30.6576037 67.5487874,30.662855 C67.4872042,30.665242 67.474792,30.6447142 67.474792,30.5874275 C67.474792,29.566451 67.474792,28.5462701 67.474792,27.5268848 C67.474792,27.4653016 67.4900685,27.4500252 67.5502195,27.4514573 C67.7329005,27.4552765 67.9155815,27.4552765 68.0982624,27.4514573 C68.1593683,27.4514573 68.1751221,27.4691207 68.1722578,27.528317 C68.1674839,27.6295235 68.171303,27.7250014 68.171303,27.8543739 Z" id="Path_177" fill="#242021"></path>
            <path d="M75.7990289,27.8285949 C75.7990289,27.7187953 75.7990289,27.6242723 75.7990289,27.5297492 C75.7966419,27.4786685 75.8080993,27.4543217 75.8668181,27.4557538 C76.0558643,27.459573 76.2449104,27.459573 76.4339566,27.4557538 C76.4864694,27.4557538 76.4993589,27.4724625 76.4979268,27.522111 C76.4979268,28.5481796 76.4979268,29.5747257 76.4979268,30.6017492 C76.4979268,30.6528298 76.4850373,30.6681063 76.4339566,30.6671515 C76.2430009,30.6647646 76.0558643,30.6633324 75.8668181,30.6671515 C75.8066671,30.6671515 75.7975967,30.6442368 75.7990289,30.5931562 C75.8014158,30.4976783 75.7990289,30.4022005 75.7990289,30.3134061 C75.7775463,30.3005166 75.7708629,30.3134061 75.7622699,30.3224765 C75.4707986,30.6619204 75.0191992,30.8182292 74.580254,30.7315991 C73.835879,30.5936823 73.2710892,29.9822484 73.1925503,29.2292897 C73.1140114,28.476331 73.5404628,27.7615037 74.2403529,27.4729399 C74.7023039,27.2807617 75.2321047,27.3538376 75.6247818,27.6638956 C75.6830233,27.7097249 75.7326718,27.7646247 75.7990289,27.8285949 Z M75.8376974,29.0593044 C75.8589888,28.7473191 75.7276006,28.4443942 75.4852674,28.2467512 C75.2429341,28.0491082 74.9197774,27.9813139 74.6184452,28.0649026 C74.205377,28.1678582 73.9128908,28.5353257 73.9052256,28.9609622 C73.844421,29.3299546 74.0003871,29.7011573 74.3064928,29.915987 C74.6125985,30.1308168 75.0147153,30.1512853 75.3410529,29.9686481 C75.6673904,29.7860109 75.8602426,29.4325637 75.83722,29.0593044 L75.8376974,29.0593044 Z" id="Path_178" fill="#242021"></path>
            <path d="M79.1574624,29.3318937 C78.7932144,29.3318937 78.4275342,29.3342807 78.0632862,29.3318937 C77.9830848,29.3318937 77.9740144,29.3524214 77.9916778,29.4273716 C78.1065542,29.9080062 78.5822577,30.2106306 79.0662811,30.110993 C79.3366127,30.084465 79.5944287,29.9840472 79.8114857,29.8207403 C79.8592247,29.7825492 79.8778429,29.8002126 79.9069636,29.8422228 C79.9914615,29.9739823 80.075482,30.1057417 80.1676181,30.2322499 C80.2101058,30.2909688 80.191965,30.3177026 80.1418391,30.3563711 C79.828434,30.5937032 79.4500001,30.7296196 79.0572107,30.7459207 C78.7570717,30.7730208 78.4549022,30.7251199 78.1778596,30.6065231 C77.6480339,30.3749685 77.2937229,29.864827 77.2617496,29.2874965 C77.221732,28.9727298 77.2607813,28.6529522 77.3753683,28.3570648 C77.6354813,27.6799103 78.3342779,27.2774402 79.0505272,27.3922611 C79.7570016,27.4833666 80.3010242,28.0603542 80.3504582,28.7709613 C80.3681323,28.9262406 80.3737187,29.0826582 80.3671669,29.2388028 C80.3647799,29.3118434 80.34282,29.3385772 80.2650056,29.337145 C79.8950289,29.3295068 79.5255296,29.3318937 79.1574624,29.3318937 Z M78.8046718,28.7809865 C79.0591202,28.7809865 79.3130913,28.7809865 79.5684946,28.7809865 C79.5942736,28.7809865 79.6506056,28.8077203 79.637716,28.7375441 C79.6067527,28.4150558 79.3896853,28.1406393 79.0829897,28.0362592 C78.8452126,27.95949 78.5856366,27.9920835 78.3742206,28.1252553 C78.1628046,28.2584271 78.0213054,28.4784725 77.9878587,28.7260867 C77.9764014,28.7953082 78.0174568,28.7824186 78.0542158,28.7824186 L78.8046718,28.7809865 Z" id="Path_179" fill="#242021"></path>
            <path d="M92.0455408,30.7669259 C91.2304792,30.8008569 90.5123078,30.235682 90.3536732,29.4354872 C90.1707646,28.7057019 90.4721952,27.9403807 91.1036438,27.5313394 C91.7350924,27.122298 92.5567665,27.1600915 93.1480001,27.625371 C93.7392337,28.0906504 93.9691372,28.8804106 93.7200088,29.5903241 C93.4708803,30.3002376 92.7978728,30.7731411 92.0455408,30.7669259 L92.0455408,30.7669259 Z M92.0455408,30.1038322 C92.4644061,30.1154619 92.8486574,29.8724618 93.0176946,29.4890431 C93.1867317,29.1056244 93.1069368,28.658041 92.8158138,28.3566594 C92.5246908,28.0552779 92.080138,27.9600365 91.6910975,28.1156993 C91.302057,28.2713621 91.0459006,28.646971 91.0430233,29.0659879 C91.0289647,29.3391477 91.1288627,29.6058978 91.3188944,29.8026258 C91.508926,29.9993538 91.772058,30.1084261 92.0455408,30.1038322 L92.0455408,30.1038322 Z" id="Path_180" fill="#242021"></path>
            <path d="M81.295689,29.7863683 C81.6462472,30.040331 82.0772954,30.1579359 82.5082578,30.1171991 C82.6422214,30.1130342 82.7739412,30.0816878 82.8954205,30.0250629 C83.0214955,29.9759548 83.101123,29.8507154 83.0921049,29.7157147 C83.0830345,29.576317 82.979441,29.5175981 82.8658223,29.47702 C82.6601689,29.4152439 82.4486716,29.3749282 82.2347137,29.3567179 C82.0345302,29.3314465 81.8386436,29.2794241 81.6522988,29.2020438 C81.3318948,29.0908424 81.1115805,28.7956401 81.0961403,28.4568392 C81.0636951,28.0955929 81.2495724,27.7497484 81.5687557,27.5774881 C81.7588113,27.4690543 81.9710232,27.4052275 82.1893617,27.3908289 C82.6876789,27.3356138 83.1913334,27.425635 83.6396704,27.6500513 C83.7179622,27.6920615 83.7418317,27.7254788 83.6874093,27.8085445 C83.6081627,27.9388718 83.5403734,28.0754051 83.4701972,28.2124159 C83.4448955,28.2649287 83.4224582,28.2697026 83.369468,28.242014 C83.0500174,28.0679682 82.6887614,27.9853765 82.3254177,28.0033193 C82.2113319,28.0069284 82.099672,28.0371731 81.9993608,28.0916364 C81.8799695,28.1481511 81.8107157,28.2752771 81.827978,28.4062359 C81.8422997,28.5389501 81.9420741,28.5914629 82.0490093,28.6248802 C82.2797427,28.6811937 82.5140479,28.7217066 82.7502941,28.7461371 C82.9531774,28.7770153 83.1503944,28.8376603 83.3355734,28.9261128 C83.5857313,29.0518102 83.7612331,29.2889478 83.8083431,29.5649178 C83.855453,29.8408879 83.7685596,30.1228181 83.574268,30.324386 C83.3552228,30.5413733 83.0691821,30.6778315 82.7627063,30.7115487 C82.1797234,30.8163361 81.5785229,30.7059011 81.0708387,30.4007683 C80.9619939,30.3344112 80.9634261,30.3315469 81.0297832,30.2217473 L81.295689,29.7863683 Z" id="Path_181" fill="#242021"></path>
            <path d="M85.0680191,29.0311385 C85.0680191,28.714152 85.0651547,28.4472914 85.070406,28.1799534 C85.070406,28.1112093 85.0498783,28.0930685 84.982089,28.0954555 C84.8221636,28.0992746 84.6627156,28.0930685 84.5046997,28.0978424 C84.4383426,28.0978424 84.4125636,28.0849529 84.4154279,28.0133445 C84.4205201,27.8542148 84.4205201,27.695085 84.4154279,27.5359552 C84.4125636,27.4695981 84.4359557,27.4552765 84.4970615,27.4567086 C84.6569869,27.4605277 84.8164349,27.4528895 84.9744508,27.4605277 C85.0546522,27.4643469 85.0699286,27.4347487 85.0699286,27.3621855 C85.0661095,27.0991441 85.0699286,26.8346704 85.0675417,26.5711515 C85.0675417,26.5047944 85.081386,26.4804476 85.1529944,26.4818797 C85.3344023,26.487131 85.5172424,26.487131 85.7000825,26.4818797 C85.7626205,26.4818797 85.77551,26.5024075 85.77551,26.5596942 C85.773123,26.8265548 85.7778969,27.0938928 85.7716909,27.3607534 C85.7716909,27.4452513 85.7974699,27.4619599 85.8752843,27.4605277 C86.1946578,27.4552765 86.5140312,27.4605277 86.833882,27.4567086 C86.9016713,27.4567086 86.922199,27.4734172 86.9193347,27.5421613 C86.9140834,27.6982676 86.9140834,27.8553287 86.9193347,28.0109576 C86.9193347,28.0787469 86.9026261,28.1002294 86.833882,28.0992746 C86.5106895,28.0954555 86.1884517,28.0992746 85.8666913,28.0954555 C85.7950829,28.0954555 85.7712135,28.1107319 85.7712135,28.1861594 C85.7750326,28.6334732 85.7712135,29.0793548 85.7712135,29.5252364 C85.7712135,29.5510154 85.7712135,29.5777492 85.7736004,29.6030508 C85.7583557,29.757134 85.8231953,29.90827 85.9453577,30.0034036 C86.06752,30.0985372 86.2299351,30.1243751 86.3755883,30.0718471 C86.5174899,30.0517998 86.6546209,30.006359 86.7804144,29.9377007 C86.8482037,29.8980774 86.8625254,29.9209921 86.8801888,29.9825753 C86.9211288,30.1265343 86.9697327,30.2682027 87.0257925,30.4069744 C87.0601645,30.4900401 87.0296116,30.5196382 86.9646867,30.5540103 C86.6592964,30.7124991 86.31353,30.7761666 85.971717,30.7368503 C85.8742569,30.7277938 85.7781536,30.7076122 85.6852834,30.6766993 C85.3583088,30.566325 85.127653,30.2728994 85.0976172,29.9291077 C85.066144,29.6308876 85.0562522,29.3307838 85.0680191,29.0311385 L85.0680191,29.0311385 Z" id="Path_182" fill="#242021"></path>
            <path d="M88.6503482,27.8099767 C88.6728491,27.8069737 88.6921837,27.792518 88.7014289,27.7717855 C88.9173984,27.4734928 89.2841514,27.3239035 89.647137,27.386055 C89.7473859,27.3952364 89.846322,27.4154079 89.9421636,27.4462061 C89.9779678,27.4576634 89.9932442,27.4705529 89.9779678,27.5149501 C89.9139976,27.6949259 89.8552787,27.877766 89.7989468,28.0606061 C89.7836704,28.1116867 89.7631426,28.1193249 89.7173132,28.1016615 C89.5970697,28.0598687 89.4703051,28.0399809 89.3430401,28.0429427 C89.0032778,28.0176664 88.7066659,28.2710224 88.6785142,28.6105585 C88.6633955,28.7103939 88.6565297,28.8113054 88.6579864,28.9122685 C88.6579864,29.4655627 88.6579864,30.020289 88.6603734,30.5735832 C88.6603734,30.6513977 88.6398456,30.6690611 88.5648955,30.6690611 C88.3858746,30.662855 88.2068536,30.665242 88.02831,30.6690611 C87.971978,30.6690611 87.9581338,30.6537846 87.9581338,30.5988848 C87.9581338,29.5753622 87.9581338,28.5521579 87.9581338,27.5292718 C87.9581338,27.4758042 87.9695911,27.4562312 88.0273552,27.4576634 C88.2125822,27.4614825 88.3992415,27.4614825 88.5844685,27.4576634 C88.6431874,27.4576634 88.6546447,27.4796233 88.6532125,27.5316587 C88.6474839,27.6218853 88.6503482,27.7154536 88.6503482,27.8099767 Z" id="Path_183" fill="#242021"></path>
            <polygon id="Path_188" fill="#0098DE" points="99.8126643 19.9908177 99.8126643 19.5282275 99.6918848 19.5282275 99.5529645 19.8466462 99.4135669 19.5282275 99.2927874 19.5282275 99.2927874 19.9908177 99.3777627 19.9908177 99.3777627 19.6418462 99.5080899 19.9430788 99.596407 19.9430788 99.7267342 19.6413688 99.7267342 19.9908177"></polygon>
            <polygon id="Path_189" fill="#0098DE" points="98.962434 19.9908177 98.962434 19.6089063 98.8077599 19.6089063 98.8077599 19.5306145 99.2020834 19.5306145 99.2020834 19.6089063 99.0474093 19.6089063 99.0474093 19.9908177"></polygon>
            <polygon id="Path_155" fill="#0098DE" points="48.5855895 22.0953406 48.5855895 21.5988558 48.3845131 21.5988558 48.3845131 21.4970764 48.8965131 21.4970764 48.8965131 21.5988558 48.6954368 21.5988558 48.6954368 22.0953406"></polygon>
            <rect id="Rectangle_54" fill="#FFFFFF" x="0.352707078" y="0.401435152" width="49.1538618" height="30.6064291"></rect>
            <path d="M24.9293277,0.402676364 L49.3321786,0.402676364 C49.5264283,0.402676364 49.5034659,0.377852121 49.5034659,0.568998788 C49.5034659,1.93433212 49.5034659,3.30276848 49.5034659,4.67430788 C49.5034659,4.78229333 49.4836065,4.81580606 49.3669325,4.81580606 C33.0731273,4.81249616 16.7787014,4.81249616 0.483654957,4.81580606 C0.363877987,4.81580606 0.348983442,4.77608727 0.348983442,4.67306667 C0.352086472,3.3040097 0.348983442,1.93557333 0.352086472,0.566516364 C0.352086472,0.380334545 0.32726223,0.403917576 0.51158223,0.403917576 L24.9274659,0.403917576 L24.9293277,0.402676364 Z" id="Path_156" fill="#1A1F71"></path>
            <path d="M24.9156744,31.0072436 L0.537647684,31.0072436 C0.321676775,31.0072436 0.351465866,31.0357915 0.351465866,30.816097 C0.351465866,29.4606933 0.351465866,28.1046691 0.348362836,26.7492655 C0.348362836,26.6394182 0.366360411,26.5996994 0.489861017,26.5996994 C16.7803564,26.6030093 33.070438,26.6030093 49.3601059,26.5996994 C49.4798828,26.5996994 49.5047071,26.6325915 49.5047071,26.7474036 C49.5013972,28.112737 49.5013972,29.4811733 49.5047071,30.8527127 C49.5047071,30.9855224 49.4668501,31.0103467 49.3439701,31.0091487 C41.2007911,31.0078642 33.0580259,31.0072436 24.9156744,31.0072436 Z" id="Path_157" fill="#F6B500"></path>
            <path d="M41.1681059,20.3017891 C40.7560234,20.3017891 40.3458028,20.2968242 39.9355822,20.3017891 C39.8344234,20.3017891 39.7978077,20.275103 39.7779483,20.1776679 C39.6798925,19.681183 39.5719071,19.1846982 39.4726101,18.6882133 C39.4558537,18.6069139 39.4260647,18.5783661 39.3410416,18.5783661 C38.1383071,18.581676 36.9349519,18.581676 35.7309762,18.5783661 C35.6636538,18.5687296 35.6004022,18.6129786 35.586375,18.6795248 C35.408261,19.1809745 35.2258028,19.681183 35.0476889,20.1826327 C35.0197616,20.2639321 34.9856283,20.3024097 34.8919168,20.3005479 C33.9299774,20.295583 32.968038,20.2974448 32.0060986,20.3005479 C31.8962513,20.3005479 31.8819774,20.2825503 31.9247992,20.1764267 C33.3919119,16.6778634 34.858404,13.1793002 36.3242756,9.68073697 C36.5271619,9.1192563 37.0721491,8.75542832 37.6685083,8.78334061 C38.4610222,8.78334061 39.2529156,8.78334061 40.0460501,8.78023758 C40.142244,8.78023758 40.1658271,8.81685333 40.1819628,8.89629091 C40.7198214,11.4796671 41.2591281,14.0624226 41.7998828,16.6445576 C42.0456428,17.8241228 42.2938853,19.0032743 42.5446101,20.1820121 C42.5663313,20.2850327 42.5346804,20.2980655 42.4415895,20.2980655 C42.0152331,20.2986861 41.5919798,20.3017891 41.1681059,20.3017891 Z M38.0594901,11.9422255 C38.0247362,11.9490521 38.0247362,11.9720145 38.0179095,11.9918739 C37.517701,13.3692057 37.0170788,14.7459168 36.5160428,16.1220073 C36.4831507,16.21696 36.5092162,16.2268897 36.5942392,16.2268897 C37.330278,16.2237867 38.0681786,16.2268897 38.8035968,16.2268897 C38.9531628,16.2268897 38.9519216,16.2268897 38.9215119,16.0822885 C38.7469148,15.246539 38.5729382,14.4109964 38.3995822,13.5756606 C38.2872525,13.0289067 38.1724404,12.4852558 38.0601107,11.9422255 L38.0594901,11.9422255 Z" id="Path_158" fill="#1A1F71"></path>
            <path d="M19.679621,8.78706424 C19.6783275,8.83491098 19.6639465,8.88148832 19.6380404,8.92173576 C18.0658384,12.6743337 16.4936364,16.4271386 14.9214344,20.1801503 C14.9015595,20.2617103 14.8234482,20.3152112 14.7402174,20.3042715 C13.778278,20.2993067 12.8163386,20.2993067 11.8543992,20.3042715 C11.7433107,20.3042715 11.7079362,20.2695176 11.6818707,20.166497 C10.8974247,17.1255273 10.1055313,14.0795927 9.32356768,11.032417 C9.2270759,10.5878183 8.92373688,10.2161992 8.50747071,10.0326206 C7.79909799,9.71189808 7.0628928,9.45659442 6.30804284,9.26989576 C6.13551435,9.22521212 5.96422708,9.17866667 5.78983678,9.14577455 C5.70667556,9.12901818 5.7004695,9.09426424 5.71350223,9.02165333 C5.7619095,8.78396121 5.76004768,8.78396121 6.00270465,8.78396121 C7.55421981,8.78396121 9.10573496,8.80071758 10.6572501,8.77713455 C11.4550835,8.71614728 12.1573745,9.29923839 12.2441398,10.0946812 C12.6326392,12.2326691 13.0416186,14.3675539 13.4437713,16.50368 C13.4487362,16.5285042 13.456804,16.5520873 13.4704574,16.5967709 C13.4971434,16.5347103 13.5188647,16.4956121 13.532518,16.4521697 C14.5254877,13.9387152 15.5184574,11.4240194 16.5114271,8.90808242 C16.5331254,8.82204072 16.6167462,8.76665204 16.7044356,8.78023758 C17.6533422,8.78520242 18.6016283,8.78334061 19.5499144,8.78334061 L19.679621,8.78706424 Z" id="Path_159" fill="#1A1F71"></path>
            <path d="M24.0716501,17.3489455 C24.3972907,17.5046338 24.7305644,17.6438258 25.0702053,17.7659927 C25.8739822,18.042262 26.7295822,18.1343122 27.5737301,18.0353358 C27.9253195,18.0034789 28.261144,17.8745636 28.5437374,17.6629721 C28.7604482,17.5133017 28.8969797,17.2728899 28.914507,17.0101017 C28.9320343,16.7473135 28.8286398,16.4908993 28.6337253,16.3137745 C28.3383978,16.0399517 27.9999813,15.8166472 27.6320671,15.6528291 C27.0915137,15.4009715 26.5749154,15.1006092 26.0886198,14.7554327 C25.5252545,14.3756874 25.1015602,13.8220951 24.8821616,13.1790933 C24.6291011,12.3157559 24.7696593,11.3847567 25.2663168,10.6346085 C25.7791852,9.84142024 26.5518983,9.25124477 27.4520913,8.96517818 C28.3740512,8.64385987 29.3529762,8.51871981 30.326118,8.59777939 C31.0527614,8.65131311 31.7692522,8.79986917 32.4572792,9.03965091 C32.558438,9.07316364 32.5814004,9.11288242 32.5565762,9.21714424 C32.3939774,9.95152808 32.2361366,10.6869463 32.0830537,11.4233988 C32.0631944,11.5195927 32.0383701,11.5214545 31.9552089,11.4854594 C31.1298132,11.1142772 30.227527,10.9461625 29.3238392,10.9951806 C28.9583138,11.0021509 28.6011522,11.1057877 28.2886683,11.2955539 C28.1770416,11.3661003 28.0801039,11.4575589 28.0031895,11.564897 C27.7982565,11.8201345 27.807436,12.186003 28.0249107,12.4306424 C28.2628222,12.690064 28.5488339,12.9008317 28.8670731,13.0512485 C29.4101034,13.3534836 29.9736137,13.619103 30.489958,13.9666424 C30.8422005,14.1948628 31.1584605,14.4743095 31.4283144,14.7957721 C31.9170334,15.4011409 32.1265132,16.185168 32.0048574,16.9536194 C31.854919,18.333592 30.9276798,19.5056668 29.6192477,19.9691442 C28.5827573,20.3884856 27.4622709,20.5585461 26.3480331,20.4656291 C25.5739103,20.4286073 24.8072855,20.2964594 24.065444,20.0721648 C23.9080695,20.024515 23.7533229,19.9685825 23.6018513,19.9046012 C23.550341,19.88288 23.5317228,19.8648824 23.5453762,19.8034424 C23.7247313,18.9873455 23.8972598,18.1731103 24.0716501,17.3489455 Z" id="Path_160" fill="#1A1F71"></path>
            <path d="M20.0017156,20.3017891 C19.5418465,20.3017891 19.079495,20.2986861 18.617764,20.3017891 C18.5314998,20.3017891 18.5116404,20.2819297 18.529638,20.1956655 C18.9735782,18.1307022 19.4166909,16.0647046 19.8589762,13.9976727 C20.2176865,12.3164509 20.5801204,10.6333673 20.9338659,8.95090424 C20.9617931,8.81809455 21.0089592,8.78147879 21.1448719,8.78147879 C22.0335798,8.78954667 22.9229083,8.78830545 23.813478,8.78147879 C23.9313931,8.78147879 23.9512525,8.80444121 23.9264283,8.91925333 C23.3265091,11.7136356 22.7290723,14.5063628 22.134118,17.2974352 C21.9272493,18.2560646 21.722863,19.2151079 21.5209592,20.1745648 C21.5010998,20.2676558 21.4657253,20.2986861 21.3645665,20.2986861 C20.9090416,20.2962036 20.4553786,20.3017891 20.0017156,20.3017891 Z" id="Path_161" fill="#1A1F71"></path>
            <path d="M26.1469568,23.3713067 C26.1469568,22.8878545 26.1469568,22.4044024 26.1469568,21.9228121 C26.1469568,21.8346861 26.1668162,21.8067588 26.2580453,21.808 C26.7446004,21.8129648 27.2313624,21.8129648 27.7183313,21.808 C27.8114222,21.808 27.8424525,21.8278594 27.8424525,21.9259152 C27.8356259,22.1518158 27.8424525,22.1518158 27.6165519,22.1518158 C27.2944574,22.1518158 26.9723628,22.1518158 26.6496477,22.1518158 C26.581381,22.1518158 26.554695,22.1648485 26.554695,22.2418036 C26.5596598,22.507423 26.5615216,22.7749042 26.554695,23.0423855 C26.5515919,23.1336145 26.5913107,23.142303 26.6657834,23.142303 C26.9947047,23.1392 27.3254877,23.142303 27.6587531,23.1392 C27.748741,23.1392 27.7735653,23.1621624 27.7717034,23.2521503 C27.7686004,23.4749479 27.7717034,23.4749479 27.5557325,23.4749479 C27.2584622,23.4749479 26.9624331,23.4780509 26.6651628,23.4749479 C26.5869665,23.4749479 26.5553156,23.4867394 26.5571774,23.5761067 C26.564004,23.8864097 26.5621422,24.1967127 26.5571774,24.5032921 C26.5571774,24.5827297 26.5788986,24.6013479 26.657095,24.6013479 C27.0375265,24.596383 27.4198198,24.6013479 27.8002513,24.596383 C27.8883774,24.596383 27.9150634,24.6181042 27.9132016,24.7074715 C27.9082368,24.9364752 27.9132016,24.9364752 27.6792331,24.9364752 C27.2057107,24.9364752 26.7303265,24.9364752 26.2574247,24.9395782 C26.1742634,24.9395782 26.1494392,24.917857 26.1506804,24.8334545 C26.1488186,24.3431758 26.1469568,23.8578618 26.1469568,23.3713067 Z" id="Path_162" fill="#1A1F71"></path>
            <path d="M37.5034271,23.8249697 C37.5363469,23.3547421 37.8665689,22.9583823 38.3231243,22.841101 C38.7796796,22.7238197 39.2600478,22.9119527 39.5155237,23.3080964 C39.7709996,23.70424 39.7442154,24.2194392 39.4490384,24.5869556 C39.1538613,24.9544719 38.6565742,25.0917786 38.2146416,24.9277867 C37.7570406,24.7613237 37.4662946,24.3104898 37.5034271,23.8249697 Z M39.2746368,23.8200048 C39.2789611,23.6202642 39.2282941,23.4231784 39.1281737,23.2502885 C39.0208747,23.0703649 38.8294466,22.9573513 38.6200757,22.9503221 C38.4107048,22.9432928 38.2121279,23.0432127 38.0930028,23.2155345 C37.8581487,23.5843771 37.860089,24.0563347 38.0979677,24.4232339 C38.2049932,24.5770882 38.3775707,24.672318 38.5647953,24.6808337 C38.75202,24.6893495 38.9325298,24.6101795 39.0530804,24.4666764 C39.2049701,24.2862787 39.2839875,24.0556452 39.2746368,23.8200048 L39.2746368,23.8200048 Z" id="Path_163" fill="#1A1F71"></path>
            <path d="M40.6914804,23.0591418 C40.8157576,22.8538074 41.0207625,22.7103041 41.2562319,22.6638158 C41.4807748,22.6090046 41.7180633,22.657597 41.9029863,22.7962592 C42.0879094,22.9349214 42.2010433,23.149089 42.2113447,23.3799952 C42.2597519,23.87648 42.2212744,24.3729648 42.231204,24.8651055 C42.231204,24.9215806 42.207621,24.9395782 42.1548695,24.9346133 L42.143078,24.9346133 C41.8209834,24.9495079 41.8222247,24.9495079 41.8209834,24.6286545 C41.8209834,24.2649794 41.8240865,23.9013042 41.8110537,23.5370085 C41.798021,23.1727127 41.6087362,22.978463 41.3009156,22.978463 C40.9889455,22.982496 40.7373118,23.2349566 40.7343022,23.5469382 C40.7206489,23.9689503 40.7243725,24.3928242 40.7293374,24.8160776 C40.7293374,24.9122715 40.7026513,24.9401988 40.6095604,24.9358545 C40.317255,24.9308897 40.3191168,24.9358545 40.317255,24.6466521 C40.3141519,24.0260461 40.3122901,23.4104048 40.3042222,22.7929018 C40.3042222,22.7097406 40.3240816,22.6867782 40.4072428,22.6867782 C40.6554853,22.6867782 40.6554853,22.6867782 40.6778271,22.931297 L40.6914804,23.0591418 Z" id="Path_164" fill="#1A1F71"></path>
            <path d="M30.7537156,23.8870303 C30.5247119,23.8870303 30.2950877,23.8901333 30.0679459,23.8870303 C29.9897495,23.8870303 29.9649253,23.9056485 29.974855,23.9881891 C29.9803599,24.1753123 30.0601916,24.3525312 30.1966913,24.4806452 C30.333191,24.6087593 30.515109,24.6772099 30.7022053,24.6708558 C30.8928492,24.6810144 31.083641,24.6538187 31.2638537,24.5907976 C31.3364647,24.5641115 31.3668744,24.5678352 31.387975,24.6491345 C31.4407265,24.8601406 31.4463119,24.8632436 31.2365471,24.9184776 C30.9390405,25.0086521 30.622602,25.0161608 30.3211531,24.9401988 C29.8977577,24.8235431 29.6002812,24.4439519 29.5882174,24.0049455 C29.5369813,23.6515435 29.6329992,23.292598 29.8538368,23.0119758 C30.1019643,22.6946485 30.521444,22.5653873 30.9051434,22.6880194 C31.2595527,22.7858266 31.5134311,23.096952 31.5381616,23.463777 C31.5577828,23.5722474 31.5650695,23.6825895 31.5598828,23.7926982 C31.5598828,23.8671709 31.5300937,23.893857 31.4518974,23.8926158 C31.2191701,23.8833067 30.9864428,23.8870303 30.7537156,23.8870303 Z M30.5675337,23.5978279 C30.735718,23.5978279 30.9045228,23.5978279 31.0739483,23.5978279 C31.1136671,23.5978279 31.1552477,23.6096194 31.1620744,23.5413527 C31.1737194,23.2981159 31.0343117,23.0728431 30.8114319,22.9747394 C30.6260081,22.9094907 30.4206357,22.9359443 30.2577992,23.0460516 C30.0949626,23.156159 29.9939169,23.3369002 29.9854053,23.5332848 C29.9736137,23.5996897 30.0139531,23.5996897 30.0604986,23.5996897 C30.2286828,23.5978279 30.3981083,23.5978279 30.5675337,23.5978279 Z" id="Path_165" fill="#1A1F71"></path>
            <path d="M33.237381,24.9842618 C32.9378731,25.0216186 32.6363783,24.9321408 32.4057386,24.7374466 C32.175099,24.5427523 32.0362924,24.2605499 32.022855,23.9590206 C31.9791323,23.652743 32.06128,23.3418121 32.2505744,23.0970975 C32.4398687,22.8523828 32.7201794,22.6947371 33.0276162,22.6600921 C33.2504347,22.632239 33.4766485,22.6534201 33.6904234,22.7221527 C33.7655168,22.746977 33.7971677,22.7804897 33.7617931,22.8599273 C33.732004,22.9219879 33.732004,23.0144582 33.6854586,23.054177 C33.6587725,23.07776 33.5656816,23.0212848 33.5030004,23.0045285 C33.1626083,22.8880304 32.7860754,23.0079967 32.575815,23.299937 C32.3712022,23.6278144 32.3797242,24.0456354 32.5975362,24.364897 C32.8153918,24.6343793 33.1796778,24.736897 33.5061034,24.6205867 C33.7239362,24.5721794 33.7171095,24.5672145 33.7655168,24.7831855 C33.7804113,24.8526933 33.752484,24.8731733 33.6991119,24.8911709 C33.5510388,24.9462334 33.3952221,24.9776481 33.237381,24.9842618 Z" id="Path_166" fill="#1A1F71"></path>
            <path d="M34.9223265,22.1567806 C34.9223265,22.3181382 34.9254295,22.4627394 34.9223265,22.6054788 C34.9223265,22.6718836 34.9421859,22.6954667 35.0085907,22.691743 C35.1432622,22.68864 35.279175,22.691743 35.4138465,22.691743 C35.4821131,22.68864 35.5100404,22.7035345 35.5100404,22.7798691 C35.513764,23.0026667 35.5168671,23.0008048 35.2959313,23.0026667 C35.1780162,23.0026667 35.0216234,22.9641891 34.9521156,23.0243879 C34.8708162,23.0926545 34.9272913,23.2533915 34.9254295,23.3750303 C34.9204647,23.6325818 34.9254295,23.8901333 34.9254295,24.1489261 C34.9254295,24.1954715 34.9254295,24.242017 34.9285325,24.2885624 C34.9521156,24.5827297 35.0650659,24.6838885 35.3573713,24.6410667 C35.4752865,24.6243103 35.4814925,24.6677527 35.4814925,24.754017 C35.4883192,24.9600582 35.4895604,24.9600582 35.282278,24.9799176 C35.2438004,24.9832275 35.2055297,24.9848824 35.1674659,24.9848824 C35.007129,25.0094842 34.8441895,24.9611184 34.7232418,24.8530221 C34.602294,24.7449258 34.5360045,24.5884196 34.5425156,24.426337 C34.5127265,24.0074279 34.5344477,23.5891394 34.530724,23.1702303 C34.527621,23.0039079 34.530724,23.0057697 34.3693665,23.0026667 C34.3073059,23.0026667 34.2166974,23.0374206 34.1949762,22.9809455 C34.1751503,22.8996461 34.1724031,22.8151182 34.1869083,22.732703 C34.1869083,22.6811927 34.2365568,22.7010521 34.2663459,22.6979491 C34.3507483,22.6861576 34.4674222,22.7376679 34.5145883,22.671263 C34.5543071,22.6166497 34.5344477,22.5068024 34.524518,22.4230206 C34.5096234,22.3069673 34.5592719,22.2566982 34.6672574,22.2368388 C34.7479362,22.2151176 34.8273737,22.1853285 34.9223265,22.1567806 Z" id="Path_167" fill="#1A1F71"></path>
            <path d="M28.5344283,23.2850424 C28.5344283,22.7730424 28.5344283,22.261663 28.5344283,21.7484218 C28.5344283,21.6671224 28.5542877,21.6435381 28.6393107,21.6435381 C28.9452695,21.6435381 28.9452695,21.6404364 28.9452695,21.9408097 C28.9452695,22.8977842 28.9452695,23.852897 28.9452695,24.8098715 C28.9452695,24.9097891 28.9216865,24.9395782 28.8211483,24.9377164 C28.5356695,24.9308897 28.5356695,24.9377164 28.5356695,24.6572024 L28.5344283,23.2850424 Z" id="Path_168" fill="#1A1F71"></path>
            <path d="M36.435364,23.0907927 C36.5423419,22.8614232 36.753261,22.6976317 37.0019774,22.650783 C37.1682998,22.6259588 37.1844356,22.6389915 37.1844356,22.8034521 L37.1844356,22.8419297 C37.1844356,23.0181818 37.1844356,23.0181818 37.0081834,23.0330764 C36.7118009,23.0646632 36.4893067,23.3184794 36.496804,23.6164461 C36.4837713,24.0136339 36.4868744,24.412063 36.4899774,24.8111127 C36.4899774,24.9073067 36.470118,24.9408194 36.3658562,24.9389576 C36.0785156,24.9321309 36.0785156,24.9389576 36.0785156,24.6466521 C36.0747919,24.0334933 36.0903071,23.4190933 36.0598974,22.8059345 C36.0567944,22.7215321 36.0716889,22.6880194 36.1666416,22.6898812 C36.414884,22.6948461 36.414884,22.6898812 36.4223313,22.9275733 C36.4272962,22.9815661 36.4316404,23.0361794 36.435364,23.0907927 Z" id="Path_169" fill="#1A1F71"></path>
            <path d="M38.0613519,11.9416048 C38.1743022,12.4846352 38.2891144,13.0282861 38.4020647,13.5731782 C38.5766618,14.4089277 38.7506384,15.2444703 38.9239944,16.0798061 C38.9537834,16.2244073 38.9556453,16.2244073 38.8060792,16.2244073 C38.0700404,16.2244073 37.3327604,16.2244073 36.5967216,16.2244073 C36.5123192,16.2244073 36.4856331,16.2144776 36.5185253,16.1195248 C37.0220436,14.7438481 37.5226659,13.367137 38.0203919,11.9893915 C38.0247362,11.9713939 38.0247362,11.9484315 38.0613519,11.9416048 Z" id="Path_170" fill="#FEFEFE"></path>
            <path d="M39.2740162,23.8169018 C39.2833833,24.0522497 39.2045999,24.2826246 39.0530804,24.4629527 C38.9325298,24.6064559 38.75202,24.6856258 38.5647953,24.6771101 C38.3775707,24.6685944 38.2049932,24.5733645 38.0979677,24.4195103 C37.860089,24.0526111 37.8581487,23.5806535 38.0930028,23.2118109 C38.2121279,23.0394891 38.4107048,22.9395692 38.6200757,22.9465984 C38.8294466,22.9536277 39.0208747,23.0666413 39.1281737,23.2465648 C39.2281879,23.4196984 39.278643,23.6170102 39.2740162,23.8169018 L39.2740162,23.8169018 Z" id="Path_171" fill="#FEFEFE"></path>
            <path d="M30.5650513,23.5978279 C30.3956259,23.5978279 30.2262004,23.5978279 30.0586368,23.5978279 C30.0120913,23.5978279 29.9723725,23.5978279 29.9835434,23.531423 C29.9920551,23.3350384 30.0931008,23.1542972 30.2559374,23.0441898 C30.4187739,22.9340824 30.6241463,22.9076289 30.8095701,22.9728776 C31.0324499,23.0709813 31.1718576,23.2962541 31.1602125,23.5394909 C31.1533859,23.6077576 31.1124259,23.5959661 31.0720865,23.5959661 C30.9045228,23.5990691 30.735718,23.5978279 30.5650513,23.5978279 Z" id="Path_172" fill="#FEFEFE"></path>
        </g>
    </g>
</svg>