<?xml version="1.0" encoding="UTF-8" standalone="no"?>
<svg
   width="87.999001"
   height="29.000078"
   viewBox="0 0 87.999001 29.000078"
   fill="none"
   version="1.1"
   id="svg71"
   sodipodi:docname="instantEFT.svg"
   inkscape:version="1.2.2 (b0a8486541, 2022-12-01, custom)"
   xmlns:inkscape="http://www.inkscape.org/namespaces/inkscape"
   xmlns:sodipodi="http://sodipodi.sourceforge.net/DTD/sodipodi-0.dtd"
   xmlns="http://www.w3.org/2000/svg"
   xmlns:svg="http://www.w3.org/2000/svg">
  <defs
     id="defs75" />
  <sodipodi:namedview
     id="namedview73"
     pagecolor="#ffffff"
     bordercolor="#666666"
     borderopacity="1.0"
     inkscape:showpageshadow="2"
     inkscape:pageopacity="0.0"
     inkscape:pagecheckerboard="0"
     inkscape:deskcolor="#d1d1d1"
     showgrid="false"
     inkscape:zoom="10.413754"
     inkscape:cx="34.569665"
     inkscape:cy="7.3460538"
     inkscape:window-width="1920"
     inkscape:window-height="948"
     inkscape:window-x="0"
     inkscape:window-y="27"
     inkscape:window-maximized="1"
     inkscape:current-layer="svg71" />
  <path
     d="M 0.02148419,17.5568 1.5638505,9.63822 H 3.9497281 L 2.4089856,17.5552 H 0.02148419 Z M 1.8954093,7.51688 C 1.9116632,6.72295 2.542266,6.18945 3.2703716,6.18945 c 0.7281063,0 1.1929426,0.45254 1.1929426,1.14959 0,0.82566 -0.6468566,1.31155 -1.4091123,1.31155 -0.663086,0 -1.1604239,-0.43665 -1.1604239,-1.13371 z"
     fill="#000000"
     id="path25"
     style="stroke-width:1.00001"
     inkscape:export-filename="../2238f16e/ieft.svg"
     inkscape:export-xdpi="121.0916"
     inkscape:export-ydpi="121.0916" />
  <path
     d="M 4.4140345,17.5567 5.44121,12.2136 C 5.6394784,11.2101 5.772757,10.3352 5.8718972,9.63975 H 7.9928551 L 7.8270752,10.9513 h 0.032504 C 8.6218306,9.91445 9.632735,9.46191 10.710244,9.46191 c 1.326193,0 2.072289,0.79389 2.072289,2.15309 0,0.3557 -0.06679,0.9559 -0.133308,1.3433 l -0.895486,4.5984 H 9.3678171 l 0.8451319,-4.3872 c 0.05043,-0.2747 0.08281,-0.5986 0.08281,-0.8908 0,-0.5509 -0.198292,-0.9384 -0.7947605,-0.9384 -0.7785062,0 -1.6902611,0.9559 -2.0218192,2.7041 L 6.7999057,17.5583 H 4.4140243 Z"
     fill="#000000"
     id="path27"
     style="stroke-width:1.00001" />
  <path
     d="m 14.042018,15.467 c 0.464796,0.227 1.342503,0.551 2.120988,0.551 0.679393,0 1.027207,-0.324 1.027207,-0.713 0,-0.389 -0.264896,-0.6637 -1.010999,-1.0194 -0.944198,-0.4541 -1.722699,-1.1178 -1.722699,-2.1054 0,-1.6355 1.475694,-2.71999 3.562571,-2.71999 0.944196,0 1.690194,0.17783 2.088505,0.40489 l -0.563994,1.6514 c -0.347894,-0.162 -0.911801,-0.3557 -1.623693,-0.3557 -0.630608,0 -1.061297,0.2747 -1.061297,0.6954 0,0.324 0.331606,0.5987 0.994688,0.9067 0.877592,0.4367 1.8073,1.0686 1.8073,2.169 0,1.8133 -1.574905,2.785 -3.712074,2.785 -1.027212,0 -2.005608,-0.2588 -2.486692,-0.616 l 0.580189,-1.6355 z"
     fill="#000000"
     id="path29"
     style="stroke-width:1.00001" />
  <path
     d="m 25.228965,7.42004 -0.430809,2.2182 h 1.724496 l -0.347814,1.76406 h -1.724474 l -0.546008,2.6882 c -0.0665,0.324 -0.133284,0.7289 -0.133284,1.0035 0,0.3891 0.165788,0.6637 0.679292,0.6637 0.21621,0 0.447102,0 0.663086,-0.0317 l -0.280992,1.8292 c -0.299003,0.1127 -0.895598,0.1778 -1.409184,0.1778 -1.425298,0 -2.104598,-0.7129 -2.104598,-1.7006 0,-0.4366 0.05035,-0.8748 0.165597,-1.4735 l 0.630603,-3.1582 H 21.087787 L 21.41927,9.63666 h 1.043398 l 0.331609,-1.66723 2.436272,-0.55097 z"
     fill="#000000"
     id="path31"
     style="stroke-width:1.00001" />
  <path
     d="m 31.65852,17.5566 c 0.01625,-0.47 0.06669,-1.0035 0.115297,-1.5704 h -0.05036 c -0.746097,1.3116 -1.773288,1.7482 -2.717582,1.7482 -1.4578,0 -2.452388,-1.1004 -2.452388,-2.7533 0,-2.6723 1.807177,-5.52089 5.800554,-5.52089 0.96051,0 2.005488,0.17783 2.684787,0.38902 l -0.86139,4.14427 c -0.198201,1.0194 -0.347799,2.5738 -0.315301,3.5615 H 31.65848 Z m 0.695585,-6.2656 c -0.182076,-0.0318 -0.414591,-0.0651 -0.646892,-0.0651 -1.540792,0 -2.66877,1.8466 -2.66877,3.3186 0,0.7764 0.315296,1.3115 0.978377,1.3115 0.712017,0 1.591206,-0.7939 1.955191,-2.7358 z"
     fill="#000000"
     id="path33"
     style="stroke-width:1.00001" />
  <path
     d="m 35.618886,17.5567 1.027212,-5.3431 c 0.198194,-1.0035 0.331481,-1.8784 0.430586,-2.57385 h 2.121083 l -0.165884,1.31155 h 0.03255 c 0.762388,-1.03685 1.773283,-1.48939 2.850671,-1.48939 1.326191,0 2.072387,0.79389 2.072387,2.15309 0,0.3557 -0.06688,0.9559 -0.133385,1.3433 l -0.895599,4.5984 h -2.385786 l 0.845183,-4.3872 c 0.05043,-0.2747 0.08281,-0.5986 0.08281,-0.8908 0,-0.5509 -0.198388,-0.9384 -0.794692,-0.9384 -0.778581,0 -1.690392,0.9559 -2.021973,2.7041 l -0.6793,3.5139 h -2.385904 z"
     fill="#000000"
     id="path35"
     style="stroke-width:1.00001" />
  <path
     d="m 47.876435,9.62866 -0.349398,1.77524 h 2.798679 l 0.349302,-1.77524 z"
     fill="#000000"
     id="path37"
     style="stroke-width:1.00001" />
  <path
     d="m 49.639926,6.92297 -1.426802,7.16753 c -0.06688,0.3239 -0.133391,0.7288 -0.133391,1.0035 0,0.389 0.16589,0.6637 0.679297,0.6637 0.216284,0 0.499095,0 0.713697,-0.0318 l -0.369011,1.8292 c -0.299102,0.1128 -0.859896,0.1779 -1.373378,0.1779 -1.425394,0 -2.104793,-0.713 -2.104793,-1.7006 0,-0.4367 0.05055,-0.8749 0.16589,-1.4735 l 0.628995,-3.1582 h -1.027084 l 0.331502,-1.76411 h 1.04338 l 0.537791,-2.7152 h 2.330792 z"
     fill="#000000"
     id="path39"
     style="stroke-width:1.00001" />
  <path
     d="m 62.642556,10.0431 h -6.096469 l -0.820612,4.2188 h 7.126771 l -0.609605,3.1836 H 51.301517 L 54.691777,0 H 65.262433 L 64.627041,3.1836 H 57.89846 l -0.741188,3.72666 h 6.096465 l -0.609599,3.13124 z"
     fill="#006397"
     id="path41"
     style="stroke-width:1.00001" />
  <path
     d="m 66.55732,0 h 10.464938 l -0.6353,3.1836 h -6.622956 l -0.820804,4.08867 h 6.224768 L 74.53248,10.4305 h -6.198664 l -1.350604,7.0134 h -3.814678 z"
     fill="#006397"
     id="path43"
     style="stroke-width:1.00001" />
  <path
     d="M 78.780639,3.26142 H 67.73201 L 68.393515,0 H 87.999 L 87.363511,3.26142 H 82.595028 L 79.866145,17.4455 h -3.814387 z"
     fill="#006397"
     id="path45"
     style="stroke-width:1.00001" />
  <path
     d="m 37.756178,4.57617 -0.224202,1.1496 h 13.943126 l 0.22411,-1.1496 z"
     fill="#006397"
     id="path47"
     style="stroke-width:1.00001" />
  <path
     d="M 41.487551,2.28955 41.263474,3.43757 H 51.908712 L 52.133007,2.28955 Z"
     fill="#006397"
     id="path49"
     style="stroke-width:1.00001" />
  <path
     d="M 44.967248,0.00170898 44.742953,1.1513 h 7.614357 l 0.224397,-1.14959102 z"
     fill="#006397"
     id="path51"
     style="stroke-width:1.00001" />
  <path
     d="M 0.87601399,27.0964 H 0 v -5.8637 h 1.1441829 v 2.5499 c 0.1901492,-0.5032 0.6956069,-0.9034 1.4481017,-0.9034 1.2384422,0 1.896681,0.9591 1.896681,2.1689 0,1.21 -0.6582388,2.1594 -1.9145505,2.1594 -0.7329967,0 -1.2677129,-0.3905 -1.4871207,-0.9034 L 0.87763908,27.0948 Z M 1.1328042,25.1227 c 0,0.7544 0.4566971,1.2101 1.1051737,1.2101 0.7248746,0 1.095414,-0.5114 1.095414,-1.2847 0,-0.7733 -0.3721895,-1.2941 -1.095414,-1.2941 -0.6484766,0 -1.1051737,0.4653 -1.1051737,1.21 z"
     fill="#000000"
     id="path53"
     style="stroke-width:1.00001" />
  <path
     d="m 5.7731261,28.6222 0.6484877,-1.5084 -1.743911,-4.1236 h 1.2010736 l 1.144173,2.8025 h 0.037404 l 1.134419,-2.8025 h 1.114924 l -2.4102645,5.632 H 5.7747582 Z"
     fill="#000000"
     id="path55"
     style="stroke-width:1.00001" />
  <path
     d="m 26.687155,23.9112 h -0.635516 v -1.021 h 0.635516 v -0.4143 c 0,-0.9861 0.745887,-1.4863 1.742173,-1.4863 0.320205,-0.003 0.638701,0.043 0.944318,0.1383 v 0.9685 C 29.15914,22.028 28.934844,21.9932 28.70893,21.9916 c -0.442086,0 -0.654982,0.1999 -0.654982,0.5794 v 0.3192 h 1.371789 v 1.021 h -1.389589 v 3.3234 h -1.348993 z"
     fill="#000000"
     id="path57"
     style="stroke-width:1.00001" />
  <path
     d="m 16.426712,26.0056 c 0,-0.7018 0.513482,-1.2116 1.672378,-1.2116 h 1.425295 v -0.2857 c 0,-0.5178 -0.300605,-0.7258 -0.919888,-0.7258 -0.505407,0 -0.796295,0.208 -0.796295,0.5543 0,0.0253 0,0.0951 0.0075,0.1809 h -1.238467 c -0.01136,-0.0825 -0.01788,-0.1666 -0.01945,-0.2509 0,-0.8653 0.778501,-1.3767 2.106393,-1.3767 1.327796,0 2.203679,0.6051 2.203679,1.7483 v 2.593 h -1.34554 c 0.03895,-0.289 0.06169,-0.578 0.06994,-0.8686 h -0.0091 c -0.13321,0.6049 -0.628903,0.9336 -1.425297,0.9336 -1.022308,0.0048 -1.7309,-0.4271 -1.7309,-1.2908 z m 3.097673,-0.4112 v -0.0859 h -1.301787 c -0.364097,0 -0.583491,0.1651 -0.583491,0.4081 0,0.3271 0.290885,0.5017 0.778482,0.5017 0.702094,-0.0064 1.106796,-0.3095 1.106796,-0.8224 z"
     fill="#000000"
     id="path59"
     style="stroke-width:1.00001" />
  <path
     fill-rule="evenodd"
     clip-rule="evenodd"
     d="m 22.368083,22.8887 h -1.331099 l 1.186484,4.3444 h 1.027093 c -0.194989,0.5192 -0.495789,0.7112 -0.967097,0.7112 -0.194988,0 -0.388391,-0.0238 -0.57688,-0.0713 v 1.0097 c 0.27948,0.0858 0.573795,0.1255 0.866285,0.116 0.845011,0 1.566702,-0.5017 1.946996,-1.7656 l 1.194585,-4.3429 h -1.334292 l -0.991497,3.8775 -1.020578,-3.8775 z"
     fill="#000000"
     id="path61"
     style="stroke-width:1.00001" />
  <path
     d="m 29.592624,26.0056 c 0,-0.7018 0.515213,-1.2116 1.674005,-1.2116 h 1.423794 v -0.2857 c 0,-0.5178 -0.300803,-0.7258 -0.919907,-0.7258 -0.503887,0 -0.796394,0.208 -0.796394,0.5543 0,0.0603 0.0031,0.1206 0.009,0.1809 h -1.239608 c -0.01145,-0.0825 -0.01637,-0.1666 -0.01788,-0.2509 0,-0.8653 0.786597,-1.3767 2.106176,-1.3767 1.389592,0 2.203901,0.6051 2.203901,1.7483 v 2.593 h -1.347293 c 0.03576,-0.2875 0.05669,-0.5749 0.06336,-0.8637 h -0.009 c -0.13161,0.6049 -0.629001,0.9335 -1.425297,0.9335 -1.015883,0 -1.724493,-0.4319 -1.724493,-1.2956 z m 3.097799,-0.4112 v -0.0859 h -1.302005 c -0.362206,0 -0.5834,0.1651 -0.5834,0.4081 0,0.3271 0.292491,0.5017 0.786798,0.5017 0.692205,-0.0064 1.098607,-0.3095 1.098607,-0.8224 z"
     fill="#000000"
     id="path63"
     style="stroke-width:1.00001" />
  <path
     d="m 34.539604,25.7897 h 1.2009 c 0,0.3953 0.204905,0.6542 0.971787,0.6542 0.698991,0 0.941206,-0.1985 0.941206,-0.5098 0,-0.1539 -0.07816,-0.2763 -0.313712,-0.3286 -0.336489,-0.0604 -0.674388,-0.1 -1.015882,-0.1191 -0.627199,-0.0524 -1.1131,-0.1541 -1.37651,-0.3287 -0.131586,-0.0984 -0.238987,-0.2239 -0.310286,-0.37 -0.07154,-0.146 -0.108998,-0.3064 -0.105913,-0.4667 0,-0.9194 0.972097,-1.4323 2.181097,-1.4323 1.430501,0 2.085395,0.5351 2.085395,1.5338 h -1.183307 c -0.009,-0.4477 -0.220896,-0.6811 -0.883978,-0.6811 -0.599899,0 -0.864701,0.1984 -0.864701,0.4907 -0.0075,0.0905 0.01945,0.1809 0.07796,0.2525 0.05876,0.0713 0.143102,0.1173 0.235701,0.1285 0.356102,0.0619 0.716806,0.1048 1.077604,0.1286 0.53789,0.0524 0.918398,0.1048 1.244993,0.2857 0.149382,0.0874 0.272999,0.2113 0.359099,0.359 0.08467,0.1477 0.128399,0.3159 0.126802,0.4858 0,0.8971 -0.784996,1.4227 -2.277003,1.4227 -1.526209,-0.0064 -2.171207,-0.6447 -2.171207,-1.5052 z"
     fill="#000000"
     id="path65"
     style="stroke-width:1.00001" />
  <path
     fill-rule="evenodd"
     clip-rule="evenodd"
     d="m 39.954081,21.369 1.557078,0.0031 v 0.3541 c -0.0017,0.6384 -0.526786,1.1544 -1.17679,1.1639 h 2.207082 v 1.0209 h -1.402693 v 1.7768 c 0,0.4416 0.214607,0.5796 0.744497,0.5796 0.204712,0 0.409519,-0.0222 0.610992,-0.0603 v 0.9941 c -0.279386,0.0586 -0.563975,0.0887 -0.849975,0.0936 -1.361994,0 -1.8511,-0.5876 -1.8511,-1.5387 v -1.8466 h -0.63719 v -1.021 h 0.796488 v -1.5211 z"
     fill="#000000"
     id="path67"
     style="stroke-width:1.00001" />
  <path
     d="m 11.287031,22.9601 h 1.332703 l -0.02603,0.8702 h 0.0076 c 0.167413,-0.586 0.7248,-0.9402 1.475688,-0.9402 1.21731,0 2.013707,0.8464 2.013707,2.1055 0,1.38 -0.796397,2.2992 -2.023502,2.2992 -0.794692,0 -1.288781,-0.3191 -1.482184,-0.8351 0.01788,0.2842 0.04391,0.7066 0.04391,0.8622 v 1.6131 h -1.340867 v -5.9749 z m 3.468293,2.0879 c 0,-0.6907 -0.4063,-1.1559 -1.015804,-1.1559 -0.669601,0 -1.119786,0.4733 -1.119786,1.1894 v 0.1904 c 0,0.613 0.450185,1.0178 1.12958,1.0178 0.59971,0 1.00601,-0.5001 1.00601,-1.2417 z"
     fill="#000000"
     id="path69"
     style="stroke-width:1.00001" />
</svg>
