<?xml version="1.0" encoding="UTF-8"?>
<svg width="163px" height="33px" viewBox="0 0 163 33" version="1.1" xmlns="http://www.w3.org/2000/svg" xmlns:xlink="http://www.w3.org/1999/xlink">
    <title>Mobicred</title>
    <g id="Dashboard" stroke="none" stroke-width="1" fill="none" fill-rule="evenodd">
        <g id="Mobicred" transform="translate(0.800117, 0.615695)" fill-rule="nonzero">
            <path d="M46.9387511,10.1158825 L47.2856985,10.1158825 C49.55759,10.1566898 51.7555925,10.9299188 53.5526459,12.3205141 C56.0796847,14.3223381 57.5595481,17.364486 57.5745409,20.5883036 C57.5751659,23.337094 56.4989847,25.9767608 54.5766459,27.9415667 C52.6326852,29.8702975 50.0233938,30.9805574 47.2856985,31.0438825 L46.9387511,31.0438825 C44.6561709,31.0081994 42.4477902,30.2275185 40.649909,28.8207246 C38.1440431,26.8104704 36.6742105,23.7805252 36.6465406,20.568093 C36.6465406,17.981107 37.6067776,15.4862066 39.3412774,13.5668299 C39.9265594,12.9067142 40.5984809,12.328839 41.3387511,11.8489351 C42.9985095,10.7417835 44.9437545,10.1397814 46.9387511,10.1158825 Z M40.201909,20.5883036 L40.201909,20.7331457 C40.2421977,24.457598 43.2579775,27.4636398 46.9825406,27.4918825 L47.2486459,27.4918825 C50.9697374,27.4573197 53.9804011,24.4541397 54.0242248,20.7331457 L54.0242248,20.5883036 C54.042051,18.6835855 53.2665215,16.8573386 51.8835932,15.5474615 C51.1807551,14.8934247 50.3545357,14.3861271 49.4532774,14.0552509 C48.7642535,13.8154655 48.0420058,13.6847677 47.3126459,13.6678825 L46.9202248,13.6678825 C45.6760051,13.6984351 44.4634438,14.0663366 43.4120143,14.7323036 C42.8496897,15.1037398 42.3349797,15.5426573 41.8793827,16.0392509 C41.2670572,16.7474849 40.8082729,17.5750171 40.5320143,18.4695667 C40.2964697,19.1511249 40.1835663,19.8690311 40.1985406,20.5899878 L40.201909,20.5883036 Z" id="Path_115" fill="#1A1A1A"></path>
            <path d="M61.4280143,1.78409304 L61.5964353,1.78409304 C62.2039747,1.80784777 62.7539126,2.15035852 63.0431722,2.68514567 C63.2328359,3.0645901 63.3166217,3.48817392 63.2856985,3.91125093 L63.2856985,11.1381983 C63.2856985,11.4497772 63.5080143,11.6923036 63.9408564,11.8691457 C64.0755932,11.887672 64.1513827,11.8910404 64.1665406,11.8910404 C64.684735,11.7395761 65.1750025,11.5052487 65.6183301,11.1971457 C67.0092627,10.5337125 68.5271259,10.1786635 70.0680143,10.1563036 L70.4149617,10.1563036 C72.3744886,10.1909151 74.284298,10.7788632 75.9240143,11.8523036 C77.8841778,13.1236111 79.3531172,15.024382 80.0890669,17.2417772 C80.4506252,18.3079874 80.6382864,19.4254244 80.6448564,20.5512509 L80.6448564,20.6775667 C80.629404,23.1778793 79.7154165,25.5892762 78.0696985,27.471672 C77.5114777,28.1152094 76.873656,28.6851176 76.1715932,29.167672 C74.4328996,30.3934042 72.3570131,31.0500622 70.2296985,31.0472509 C68.1877649,31.0481594 66.1889394,30.4598568 64.4730669,29.3529351 C64.3499093,29.275344 64.2076712,29.2333721 64.0621195,29.231672 L64.0031722,29.231672 C63.5652774,29.231672 63.2318038,29.5651457 63.0027511,30.232093 C62.6657083,30.7585011 62.0760209,31.0681249 61.4513258,31.046691 C60.8266307,31.0252571 60.2595522,30.6759435 59.9593827,30.127672 C59.8465033,29.8833906 59.7775202,29.6211409 59.7555932,29.3529351 L59.7555932,3.46156672 C59.7846964,2.81069469 60.1689947,2.22842446 60.7560143,1.94577725 C60.9693995,1.85469131 61.1965502,1.8000385 61.4280143,1.78409304 L61.4280143,1.78409304 Z M63.2806459,20.5714615 L63.2806459,20.7398825 C63.3557927,24.4531497 66.3480102,27.4453673 70.0612774,27.5205141 L70.3273827,27.5205141 C74.0423544,27.4513267 77.0365435,24.4549047 77.1030297,20.7398825 L77.1030297,20.5714615 C77.1111704,18.7349805 76.3761171,16.9732825 75.0650669,15.6872509 C74.3402463,14.9502564 73.4498502,14.3970791 72.4680143,14.0737772 C71.7950534,13.823465 71.0840644,13.6907243 70.3661195,13.6813562 L70.0191722,13.6813562 C66.2792715,13.7725875 63.2921668,16.8254085 63.2823301,20.5664088 L63.2806459,20.5714615 Z" id="Path_116" fill="#1A1A1A"></path>
            <path d="M84.4124353,3.11461935 L84.5387511,3.11461935 C85.3499057,3.11923648 86.0871059,3.58693666 86.4368564,4.31882988 C86.5858341,4.60240906 86.6633063,4.91807942 86.6625462,5.23840883 L86.6625462,5.4421983 C86.6378882,6.25412654 86.1558026,6.98214758 85.417909,7.32177725 C85.1214812,7.45547624 84.7999351,7.52437898 84.4747511,7.52388251 C83.5701742,7.53663459 82.7543175,6.98195973 82.433488,6.13609304 C82.3430606,5.9157014 82.294512,5.6803833 82.2903301,5.4421983 L82.2903301,5.25693514 C82.315809,4.09191584 83.2493378,3.15098392 84.4141195,3.11630356 L84.4124353,3.11461935 Z M84.3349617,10.1563036 L84.6195932,10.1563036 C85.1302935,10.1833109 85.6019441,10.4379898 85.9046459,10.8501983 C86.1074001,11.130891 86.2244059,11.4643575 86.241488,11.8101983 L86.241488,29.3495667 C86.2209996,30.0254888 85.8132534,30.6292416 85.193909,30.9007246 C84.9930295,30.9841901 84.7795053,31.0331583 84.5623301,31.0455667 L84.393909,31.0455667 C83.7854441,31.0250206 83.2335097,30.683347 82.9438038,30.1478825 C82.7560071,29.7755993 82.6716647,29.3597037 82.6995932,28.943672 L82.6995932,12.2699878 C82.601778,11.5457839 82.9295391,10.8299538 83.5416985,10.4308299 C83.7717517,10.260216 84.0486607,10.1643855 84.3349617,10.1563036 Z" id="Path_117" fill="#1A1A1A"></path>
            <path d="M97.9652774,10.1392903 C100.097217,10.1271963 102.180824,10.7742792 103.930751,11.992093 C104.330506,12.3410984 104.555017,12.8493327 104.543804,13.3798825 C104.535378,14.0073676 104.181827,14.5791368 103.624225,14.8670404 C103.371465,14.9989209 103.093663,15.0758331 102.809067,15.0927246 C102.257269,15.046396 101.730744,14.8410515 101.293277,14.5015667 C100.266615,13.9400788 99.1135188,13.6502104 97.9433827,13.6594615 L97.8221195,13.6594615 C96.6575563,13.6884244 95.5191813,14.0111088 94.5126459,14.5975667 C93.0728265,15.4468767 91.9803142,16.7786557 91.4288564,18.3567246 C91.1901093,19.0812451 91.0673325,19.8389371 91.0650669,20.6017772 C91.0711795,22.5361501 91.8850525,24.3800335 93.3101195,25.688093 C94.108878,26.4054182 95.0577121,26.9353613 96.0873827,27.2392509 C96.6522269,27.40276 97.2359166,27.49221 97.8238038,27.5053562 L97.9922248,27.5053562 C99.3798009,27.506163 100.736523,27.0959232 101.891172,26.3264088 C102.173226,26.171306 102.488907,26.0874713 102.810751,26.0821983 C103.391826,26.1043885 103.928768,26.3981163 104.260856,26.8754615 C104.43688,27.1655848 104.534928,27.4962795 104.545488,27.8354615 C104.542,28.5735933 104.10067,29.2392267 103.42212,29.5297772 C99.7034387,31.7741616 94.9869338,31.4983739 91.5551722,28.8358825 C91.0243746,28.4029634 90.5324002,27.9245141 90.0848564,27.4059878 C89.6271771,26.8970521 89.2314341,26.3356624 88.905909,25.7335667 C88.0059592,24.1670163 87.533208,22.3915859 87.5349568,20.5849351 C87.5403,18.3078208 88.2856796,16.0941439 89.6587511,14.2775667 C90.0765987,13.7460985 90.5343455,13.2472503 91.0280143,12.7853562 C91.6779462,12.2163626 92.3904497,11.7230909 93.1518038,11.3150404 C94.6413223,10.5495673 96.290595,10.1467708 97.9652774,10.1392903 L97.9652774,10.1392903 Z" id="Path_118" fill="#139A9E"></path>
            <path d="M108.375383,10.1393453 C108.913931,10.1692727 109.416194,10.4204042 109.763172,10.8333562 C109.910405,10.9231216 110.079163,10.9714213 110.251593,10.9731457 L110.313909,10.9731457 C110.651219,10.9125891 110.975819,10.7952774 111.273909,10.6261983 C112.124091,10.3103346 113.022968,10.145607 113.929909,10.1393453 C115.680931,10.1517392 117.371582,10.7808878 118.704646,11.9163036 C118.837005,12.0361259 118.960291,12.1656041 119.073488,12.303672 C117.73847,13.6656369 117.044576,14.3466194 116.991804,14.3466194 C116.859624,14.4352792 116.704627,14.4838254 116.545488,14.4864088 C116.205952,14.4382365 115.886136,14.2978439 115.620856,14.0805141 C115.077381,13.8061924 114.476362,13.6653196 113.867593,13.6695667 C112.814827,13.6778266 111.814375,14.1297425 111.112225,14.9141983 C110.458493,15.6272524 110.100787,16.5624666 110.111804,17.5297772 L110.111804,29.0261983 C110.17865,29.6293919 109.940544,30.226236 109.476856,30.6177772 C109.194721,30.8851863 108.822977,31.0377276 108.43433,31.0455667 L108.25412,31.0455667 C108.004926,31.0327591 107.760887,30.9697445 107.536646,30.8603036 C107.139745,30.6409412 106.835344,30.2857071 106.679383,29.8598825 C106.597346,29.5870759 106.562041,29.3023587 106.574962,29.0177772 L106.574962,12.1588299 C106.516272,11.5818825 106.738033,11.0118192 107.171172,10.6261983 C107.491352,10.3094722 107.925046,10.1341749 108.375383,10.1393453 Z" id="Path_119" fill="#139A9E"></path>
            <path d="M129.236014,10.1158647 C132.127301,10.1105476 134.891939,11.3017495 136.873909,13.4068299 C137.463227,13.9187105 137.875831,14.603633 138.052856,15.3638825 C138.051052,15.4397173 138.058404,15.5154929 138.074751,15.5895667 C138.052953,16.0733094 137.840391,16.5287128 137.483593,16.856093 C137.266891,17.0323737 133.890049,19.4413562 127.353067,24.0830404 C127.353067,24.0965141 126.804014,24.4973562 125.699172,25.2872509 C125.551433,25.4424694 125.464712,25.6458159 125.454962,25.8598825 L125.454962,25.9811457 C125.469719,26.2651345 125.632001,26.5206968 125.882751,26.6548299 C126.84336,27.1775144 127.913794,27.466041 129.006962,27.4969351 L129.417909,27.4969351 C131.063466,27.4653817 132.642797,26.8430941 133.867593,25.743672 C134.405163,25.2591299 134.860241,24.6902822 135.214962,24.0594615 C135.495007,23.5765879 135.720935,23.0642972 135.888646,22.5318825 C135.9539,22.0262504 136.14949,21.5462698 136.456225,21.1390404 C136.787828,20.8065602 137.231785,20.6101138 137.700856,20.5883036 C138.464157,20.5514042 139.158719,21.0270658 139.400225,21.752093 C139.469183,21.9285423 139.502941,22.1167823 139.499593,22.3061983 L139.499593,22.3651457 C139.385709,23.2648123 139.131687,24.1411051 138.746751,24.9621983 C138.024359,26.5261718 136.924765,27.8861961 135.546751,28.920093 C133.778723,30.2418721 131.644793,30.9837761 129.43812,31.0438825 L129.113067,31.0438825 C126.923507,31.0186205 124.796138,30.3122445 123.02633,29.0228299 C122.144714,28.3598042 121.368,27.5677608 120.72233,26.6733562 C120.31836,26.0901042 119.962385,25.4750331 119.657909,24.8341983 C119.090148,23.5016502 118.785329,22.0719146 118.760222,20.623672 C118.758556,18.1212052 119.641427,15.6986786 121.252856,13.784093 C121.762362,13.2078103 122.326389,12.6821369 122.937067,12.2144088 C124.754623,10.8523044 126.964707,10.1158647 129.236014,10.1158647 L129.236014,10.1158647 Z M122.315593,20.5478825 C122.315593,21.4994615 122.428435,22.063672 122.662541,22.2438825 C122.839881,22.408248 123.074282,22.4970546 123.316014,22.4914615 C123.750585,22.3620134 124.143689,22.1210408 124.456225,21.7925141 C124.523593,21.7700579 127.266049,19.823672 132.683593,15.9533562 C132.875804,15.7925404 132.987842,15.5555372 132.99012,15.3049351 L132.99012,15.1786194 C132.973319,14.9077019 132.820571,14.6636861 132.584225,14.5301983 C131.627841,13.9946523 130.55573,13.6993161 129.460014,13.6695667 L129.049067,13.6695667 C125.300732,13.7367405 122.300578,16.8006479 122.312191,20.5495667 L122.315593,20.5478825 Z" id="Path_120" fill="#139A9E"></path>
            <path d="M158.756856,1.74367198 L158.896646,1.74367198 C159.576259,1.76797117 160.180657,2.18271523 160.447804,2.80809304 C160.527889,3.00995183 160.576182,3.22301044 160.590962,3.43967198 L160.590962,29.3495667 C160.575009,30.0548342 160.129515,30.6786595 159.467593,30.9226194 C159.25096,30.998802 159.02351,31.0397431 158.793909,31.0438825 C158.076407,31.0388398 157.436208,30.5921737 157.183804,29.9205141 C157.087409,29.5222446 156.736153,29.2379272 156.326541,29.2266194 L156.28612,29.2266194 C156.034449,29.248517 155.794003,29.3407267 155.592225,29.4927246 C154.004653,30.4841442 152.17537,31.020695 150.303804,31.0438825 L149.997277,31.0438825 C147.848637,31.0234707 145.758954,30.3386759 144.014962,29.0834615 C143.050172,28.392102 142.213954,27.5370737 141.544225,26.5571457 C140.301554,24.7811569 139.644449,22.6614654 139.664646,20.4939878 C139.683617,18.3412419 140.359996,16.2457015 141.603172,14.488093 C142.317553,13.4910378 143.210007,12.6345565 144.235593,11.9617772 C145.17899,11.2974487 146.229493,10.8001117 147.341277,10.4914615 C148.276624,10.2499904 149.238429,10.1260873 150.204435,10.1226194 C152.19749,10.1469662 154.143653,10.7305232 155.821277,11.8068299 C155.92997,11.8463247 156.043094,11.8723434 156.15812,11.8843036 C156.556566,11.8837175 156.906374,11.6191281 157.015383,11.2358825 C157.026905,11.1537843 157.034213,11.0711497 157.037277,10.9883036 L157.037277,3.86577725 C156.946068,3.04878485 157.380082,2.26310469 158.120225,1.90535619 C158.322606,1.81829854 158.53746,1.76373231 158.756856,1.74367198 L158.756856,1.74367198 Z M143.214962,20.4670404 L143.214962,20.6927246 C143.243438,24.4045825 146.222026,27.4190113 149.933277,27.4918825 L150.30212,27.4918825 C151.913648,27.4651238 153.462772,26.8643457 154.670962,25.7975667 C155.156137,25.3743322 155.582137,24.8877178 155.937488,24.3508299 C156.641132,23.2599262 157.022362,21.9924704 157.037277,20.6944088 L157.037277,20.4687246 C156.99182,16.7567891 154.011795,13.7491991 150.300435,13.6695667 L149.931593,13.6695667 C148.321411,13.7031635 146.774557,14.303061 145.562751,15.3638825 C145.080815,15.7944392 144.660322,16.2891707 144.313067,16.8341983 C143.608782,17.9159743 143.227831,19.176269 143.214962,20.4670404 L143.214962,20.4670404 Z" id="Path_121" fill="#139A9E"></path>
            <path d="M4.27096165,12.7348299 C4.01063437,12.7345056 3.75583497,12.6597021 3.53664586,12.5192509 C3.23554792,12.325351 3.02403297,12.0195565 2.94882166,11.6694131 C2.87361035,11.3192696 2.94089153,10.9535893 3.13580376,10.6531457 C4.94474608,7.76692465 7.88504336,5.77545809 11.236433,5.16658065 C14.5878226,4.55770321 18.0407137,5.38766107 20.7492774,7.45314567 C21.1364781,7.74136498 21.3405031,8.21425972 21.2844982,8.693695 C21.2284933,9.17313029 20.920967,9.5862685 20.4777614,9.77748448 C20.0345558,9.96870045 19.5230044,9.90894393 19.1358038,9.62072462 C17.0284519,8.00162048 14.334971,7.34855848 11.7200882,7.82270849 C9.10520545,8.2968585 6.81250458,9.8540521 5.40780376,12.1099878 C5.15824847,12.4964114 4.73094905,12.7312679 4.27096165,12.7348299 L4.27096165,12.7348299 Z" id="Path_122" fill="#1A1A1A"></path>
            <path d="M1.35727744,9.17107701 C0.859965284,9.17469731 0.401077209,8.90410847 0.163573954,8.46715886 C-0.0739293011,8.03020925 -0.0514229791,7.49795926 0.222119548,7.08261935 C2.48298946,3.48240228 6.15440169,0.999666141 10.3376175,0.242169237 C14.5208332,-0.515327667 18.8297195,0.522335642 22.209488,3.10114567 C22.8094432,3.54669424 22.9346148,4.39424249 22.4890665,4.99419796 C22.0435181,5.59415342 21.1959699,5.71932532 20.5960143,5.27377725 C17.8175035,3.13938548 14.2666162,2.27810243 10.8189932,2.90231851 C7.37137011,3.5265346 4.34788399,5.57815358 2.49411955,8.55125093 C2.24446468,8.93690888 1.81668877,9.17012596 1.35727744,9.17107701 L1.35727744,9.17107701 Z" id="Path_123" fill="#1A1A1A"></path>
            <path d="M31.8987511,12.3154615 C31.2518353,11.7509974 30.5318143,11.2762707 29.7581195,10.904093 C29.5896985,10.8367246 29.3926459,10.7508299 29.1669617,10.6514615 L28.9732774,10.584093 C28.1328514,10.3118009 27.2562202,10.1675882 26.3728564,10.1563036 C25.299013,10.1580687 24.2355152,10.3661941 23.2402248,10.7693562 L23.1324353,10.8148299 C23.0061195,10.8687246 22.881488,10.9327246 22.7585406,10.9832509 C22.6355932,11.0337772 22.5075932,11.1095667 22.3795932,11.1769351 L22.2616985,11.2493562 C21.9346904,11.4421171 21.6186906,11.652971 21.3151722,11.8809351 C21.1120816,12.0825853 20.8948253,12.2694482 20.6650669,12.440093 C20.5043776,12.5932091 20.2990786,12.6911391 20.0789617,12.719672 L19.9930669,12.719672 C19.771396,12.6913766 19.5644158,12.5934886 19.401909,12.440093 C19.1729917,12.2683991 18.9558059,12.0815968 18.7518038,11.8809351 C18.4501045,11.6520544 18.135172,11.4411621 17.8086459,11.2493562 L17.6924353,11.1769351 C17.5661195,11.1095667 17.4398038,11.0455667 17.313488,10.9832509 C17.1871722,10.9209351 17.0608564,10.8619878 16.9345406,10.8148299 L16.8267511,10.7693562 C15.8333012,10.3659409 14.7714056,10.1577933 13.6991722,10.1563036 C12.8152495,10.1674962 11.9380494,10.311709 11.0970669,10.584093 L10.9033827,10.6514615 C10.6776985,10.7508299 10.4789617,10.8367246 10.3122248,10.904093 C9.53776135,11.2749129 8.817564,11.7497559 8.17159323,12.3154615 C7.51255704,12.9354079 6.96105426,13.6605003 6.53959323,14.4611457 C6.01558993,15.4101923 5.70735643,16.4631317 5.63685639,17.5449351 L5.63685639,28.6944088 C5.61837271,29.091287 5.68916367,29.487256 5.84401429,29.8531457 C5.96790121,30.0435064 6.1168929,30.2162915 6.28696165,30.3668299 C6.4239972,30.4694549 6.57064614,30.5585723 6.72485639,30.6329351 C6.91486603,30.7182087 7.11965541,30.7656878 7.32780376,30.7727246 L7.39180376,30.7727246 C7.62369133,30.7583559 7.85147211,30.7048274 8.06548797,30.6144088 C8.11938271,30.5925141 8.16822481,30.5655667 8.21875113,30.5369351 C8.52964148,30.3325554 8.77887278,30.0472205 8.93959323,29.711672 C9.06040705,29.3888514 9.11759906,29.0456993 9.10801429,28.7011457 L9.10801429,17.5331457 C9.19306808,16.8633849 9.4462642,16.2260491 9.84401429,15.6805141 L9.84401429,15.6805141 L9.84401429,15.6805141 C9.90689148,15.5861983 9.9742599,15.4913211 10.0461195,15.3958825 C10.5633086,14.7481069 11.2392249,14.2450859 12.0082248,13.935672 L12.0890669,13.9003036 C12.2052774,13.8598825 12.3282248,13.8228299 12.449488,13.7925141 C12.5084353,13.7739878 12.5656985,13.7571457 12.617909,13.743672 C12.7130194,13.7225216 12.8091434,13.7062198 12.905909,13.6948299 C12.9867511,13.6763036 13.0743301,13.6628299 13.1585406,13.6493562 C13.2427511,13.6358825 13.3791722,13.6409351 13.4953827,13.6358825 C13.5644353,13.6358825 13.6267511,13.6224088 13.6941195,13.6224088 L13.7160143,13.6224088 C13.888161,13.6222077 14.0601956,13.631203 14.2313827,13.6493562 C14.2802248,13.6493562 14.3256985,13.6678825 14.3745406,13.6712509 C14.4873827,13.6897772 14.6052774,13.7032509 14.7113827,13.7301983 C14.8531444,13.7621093 14.9931276,13.801462 15.1307511,13.848093 L15.1627511,13.8565141 C16.0694884,14.1716343 16.8652135,14.7432692 17.4532774,15.5019878 C17.8956217,16.0778803 18.1774671,16.7607017 18.2701195,17.4809351 L18.2701195,28.7112509 C18.2588748,29.0989152 18.3354517,29.4841028 18.4941195,29.8379878 C18.6133683,30.0523725 18.768943,30.2444188 18.953909,30.4055667 C19.0695596,30.4947584 19.1950011,30.5704753 19.3278038,30.6312509 C19.5350051,30.7119024 19.7518594,30.7651251 19.9728564,30.7895667 L20.0722248,30.7895667 C20.2927633,30.7656193 20.5091252,30.7123784 20.7155932,30.6312509 C20.8473581,30.5705268 20.9726298,30.4966052 21.089488,30.4106194 C21.2767223,30.2483869 21.434053,30.0545738 21.5543301,29.8379878 C21.712043,29.4837475 21.7891264,29.098906 21.7800143,28.7112509 L21.7800143,17.4809351 C21.8720158,16.7608242 22.1532904,16.0779779 22.5951722,15.5019878 C23.1814705,14.7436374 23.9754796,14.1719742 24.8806459,13.8565141 L24.9160143,13.848093 C25.0520614,13.8018919 25.1903404,13.7625442 25.3303301,13.7301983 C25.4431722,13.7032509 25.5560143,13.6897772 25.6671722,13.6712509 C25.7126459,13.6712509 25.7564353,13.6527246 25.8069617,13.6493562 C25.9792855,13.6313319 26.1524346,13.6223371 26.3256985,13.6224088 L26.3442248,13.6224088 C26.4115932,13.6224088 26.4806459,13.6308299 26.5480143,13.6358825 C26.6608564,13.6358825 26.7736985,13.6358825 26.8848564,13.6493562 C26.9960143,13.6628299 27.0532774,13.6763036 27.137488,13.6948299 C27.2216985,13.7133562 27.3311722,13.7217772 27.425488,13.743672 C27.4844353,13.7571457 27.5433827,13.775672 27.593909,13.7925141 C27.7202248,13.8245141 27.8381195,13.8598825 27.9543301,13.9003036 L28.0351722,13.935672 C28.8052443,14.2448523 29.4823075,14.7478633 30.0006459,15.3958825 C30.0730669,15.4901983 30.1404353,15.5845141 30.2044353,15.6805141 L30.2044353,15.6805141 L30.2044353,15.6805141 C30.600903,16.2262699 30.8524004,16.8637057 30.9353827,17.5331457 L30.9353827,28.7011457 C30.9257979,29.0456993 30.9829899,29.3888514 31.1038038,29.711672 C31.2664848,30.0474759 31.5173972,30.332736 31.8296985,30.5369351 C31.8794271,30.5653647 31.9305821,30.5912233 31.9829617,30.6144088 C32.1966553,30.7058118 32.4246084,30.7593807 32.6566459,30.7727246 L32.7206459,30.7727246 C32.9303887,30.7654497 33.1367872,30.7179952 33.3286459,30.6329351 C33.4805276,30.5572361 33.6253785,30.4681837 33.761488,30.3668299 C33.9334471,30.2186427 34.0821916,30.045486 34.2027511,29.8531457 C34.3599866,29.4879682 34.4308766,29.0914453 34.409909,28.6944088 L34.409909,17.5449351 C34.3411863,16.4634833 34.0346709,15.4105196 33.5122248,14.4611457 C33.0962352,13.6619426 32.5510706,12.9369534 31.8987511,12.3154615 L31.8987511,12.3154615 Z" id="Path_124" fill="#1A1A1A"></path>
        </g>
    </g>
</svg>
