<?xml version="1.0" encoding="UTF-8"?>
<svg width="142px" height="25px" viewBox="0 0 142 25" version="1.1" xmlns="http://www.w3.org/2000/svg" xmlns:xlink="http://www.w3.org/1999/xlink">
    <title>MT logo full</title>
    <g id="Settings" stroke="none" stroke-width="1" fill="none" fill-rule="evenodd">
        <g id="Payment-Methods:-MoreTyme" transform="translate(-345.000000, -1235.000000)" fill="#000000" fill-rule="nonzero">
            <g id="MT-logo-full" transform="translate(345.000000, 1235.863300)">
                <polygon id="Path" points="16.9575513 18.9918654 16.9575513 11.8699756 12.0585811 16.9028796 9.42072921 16.9028796 4.89873144 9.49593269 4.89873144 18.9918654 0 18.9918654 0 0 4.42769498 0 11.0224442 10.9202629 17.4285878 4.08319137 21.8562827 4.08319137 21.8562827 18.9918654"></polygon>
                <path d="M27.0372063,18.0426302 C25.8652256,17.4426735 24.8856703,16.5208936 24.2109876,15.3837691 C23.5289039,14.1671437 23.171747,12.7927104 23.1745777,11.395358 C23.1705533,10.0278482 23.5284264,8.68397375 24.2109876,7.50196588 C24.8856703,6.36484137 25.8652256,5.44306146 27.0372063,4.84310473 C28.2810482,4.1724806 29.6784006,3.84492762 31.0881676,3.89363083 C32.4967409,3.85805839 33.890751,4.18489514 35.1391289,4.84310473 C36.3299702,5.44926873 37.3205076,6.39134165 37.9894606,7.5547277 C38.6586523,8.71811375 38.9776105,10.0524385 38.9074206,11.395358 C38.9434706,12.784832 38.6187825,14.1597428 37.9653477,15.3837691 C37.2653584,16.4998844 36.2920104,17.415457 35.1391289,18.0426302 C33.890751,18.7008398 32.4967409,19.0276766 31.0881676,18.9921041 C29.6798331,19.0276766 28.2855843,18.7008398 27.0372063,18.0426302 Z M33.1606803,13.9592001 C33.4629267,13.6094442 33.6935508,13.2028679 33.8391829,12.7628678 C33.9845763,12.3228677 34.042113,11.8580385 34.0086892,11.395358 C34.061451,10.4917224 33.7565784,9.60384373 33.1606803,8.92653485 C32.9121507,8.61664872 32.5955798,8.36979028 32.2357968,8.20482009 C31.8760137,8.04008863 31.4830456,7.96202025 31.0881676,7.9768222 C30.6794426,7.96154277 30.2726276,8.03889493 29.8978038,8.20338764 C29.5227413,8.36764161 29.1889811,8.61473879 28.9213522,8.92653485 C28.4252479,9.64777212 28.1919977,10.5203713 28.2619489,11.395358 C28.2048897,12.3128405 28.4720412,13.221251 29.015655,13.9592001 C29.2832839,14.2709962 29.6168054,14.5180934 29.9918679,14.6823473 C30.3669304,14.84684 30.7737454,14.9241922 31.1824704,14.9089128 C31.5615915,14.9091515 31.9359378,14.8241596 32.2782927,14.6599056 C32.6206476,14.4956517 32.9221778,14.2561942 33.1606803,13.9592001 Z" id="Shape"></path>
                <path d="M47.1003036,4.36944212 C48.0356918,4.21020171 48.9911342,4.21020171 49.9265224,4.36944212 L49.9265224,8.54789124 L49.1728163,8.54789124 C48.691514,8.48199866 48.201617,8.53094062 47.7422788,8.6906585 C47.2829407,8.85037639 46.8672922,9.11609539 46.5282796,9.46704501 C46.1895058,9.81775588 45.9369176,10.243909 45.790808,10.7108868 C45.6446983,11.1778647 45.6091259,11.673014 45.6871943,12.1562263 L45.6871943,18.9932978 L40.600096,18.9932978 L40.600096,4.08462382 L45.4045246,4.08462382 L45.4045246,5.88879135 C45.8621916,5.27212273 46.4389904,4.75524796 47.1003036,4.36944212 Z" id="Path"></path>
                <path d="M66.50734,12.7320702 L55.9559323,12.7320702 C56.1192314,13.4695418 56.557799,14.1155756 57.1806749,14.5362377 C57.9014347,14.9342193 58.7145873,15.1307034 59.5358572,15.106113 C60.1284129,15.2051906 60.7331445,15.2051906 61.325939,15.106113 C61.8685978,14.8594933 62.3754455,14.5400575 62.8331124,14.1564004 L65.9420008,16.6254623 C65.1016316,17.510476 64.0678821,18.1861137 62.9231179,18.5981811 C61.7783536,19.0102485 60.5540886,19.1475247 59.3474904,18.9995051 C57.7873164,19.0434335 56.2383632,18.7182679 54.8254926,18.0497925 C53.6036149,17.4314527 52.5770276,16.48174 51.8615201,15.3073719 C51.1457739,14.1330037 50.769279,12.7807734 50.7744771,11.4025202 C50.7704727,10.0350104 51.1281071,8.69113599 51.810907,7.50936686 C52.5467075,6.38919298 53.5510919,5.4745753 54.7311898,4.85026697 C55.9795677,4.19205738 57.3738166,3.86522062 58.7821511,3.90079307 C60.1491834,3.87047293 61.5042787,4.16316969 62.7390484,4.7554867 C63.8919298,5.38242118 64.8652778,6.29823257 65.5652671,7.41434785 C66.2719412,8.6553248 66.6302918,10.0670017 66.6014041,11.4975392 C66.5336016,11.9053093 66.5020877,12.3185703 66.50734,12.7320702 Z M56.5212716,8.17402247 C55.9487701,8.6512662 55.5782437,9.33024628 55.4848959,10.073209 L61.420003,10.073209 C61.326894,9.33024628 60.9561288,8.6512662 60.3838661,8.17402247 C59.8199593,7.72948628 59.1211637,7.49456491 58.4054174,7.50936686 C57.7207076,7.50865064 57.056052,7.74309453 56.5212716,8.17402247 Z" id="Shape"></path>
                <polygon id="Path" points="71.2208083 4.08319137 65.9453432 4.08319137 65.9453432 0 82.3375552 0 82.3375552 4.2732294 76.5908149 4.2732294 76.5908149 18.9918654 71.2208083 18.9918654"></polygon>
                <path d="M99.5801636,4.08462382 L93.3623868,18.9932978 C92.812327,20.486863 91.8676279,21.8004173 90.6304708,22.7916709 C89.4947788,23.5740259 88.1425484,23.9729626 86.7678764,23.9314216 C86.0170352,24.0228595 85.257838,24.0228595 84.5067581,23.9314216 C83.8060526,23.7110634 83.1397258,23.3913889 82.5285482,22.9817089 L84.7894277,18.9932978 C85.0787821,19.2723863 85.4364165,19.4691091 85.8258035,19.5631732 C86.2295149,19.6503137 86.6468346,19.6503137 87.050546,19.5631732 C87.4516313,19.6720392 87.8742033,19.6720392 88.2752885,19.5631732 C88.3925105,19.3857884 88.4875295,19.194318 88.5577194,18.9932978 L82.3401814,4.08462382 L87.6156465,4.08462382 L91.1955714,13.5805565 L94.7754962,4.08462382 L99.5801636,4.08462382 Z" id="Path"></path>
                <path d="M122.943381,5.50895404 C124.086235,6.84948608 124.661363,8.58847725 124.544857,10.3520588 L124.544857,18.9932978 L119.551823,18.9932978 L119.551823,11.3965517 C119.620819,10.5946199 119.421948,9.79244931 118.986484,9.11752783 C118.797162,8.87926408 118.55102,8.69328466 118.270738,8.57701767 C117.990694,8.46075069 117.685822,8.41801601 117.385008,8.45287223 C117.051009,8.4497686 116.719874,8.51566118 116.412137,8.64625263 C116.1044,8.77684409 115.826266,8.96950827 115.594926,9.21254685 C115.098821,9.93402286 114.86581,10.8063833 114.935522,11.68137 L114.935522,18.9932978 L109.942488,18.9932978 L109.942488,11.3965517 C109.942488,9.40234613 109.283085,8.45287223 107.869976,8.45287223 C107.521652,8.44785867 107.175955,8.5123188 106.85246,8.64267151 C106.529205,8.77302423 106.234598,8.96688211 105.98583,9.21254685 C105.531744,9.95312216 105.302552,10.8111582 105.326426,11.68137 L105.326426,18.9932978 L100.427456,18.9932978 L100.427456,4.08462382 L105.137821,4.08462382 L105.137821,5.69899206 C105.599785,5.09617044 106.219796,4.6356386 106.927903,4.36944212 C107.732699,4.17224185 108.572591,4.17224185 109.377388,4.36944212 C110.286992,4.36562226 111.186808,4.55995762 112.01524,4.93931745 C112.789,5.3205872 113.441719,5.91266547 113.899385,6.6487047 C114.42963,5.90550323 115.144421,5.31605112 115.971898,4.93931745 C116.863358,4.55040797 117.826679,4.35607261 118.798117,4.36944212 C119.529381,4.27275192 120.272583,4.3236038 120.98427,4.51937161 C121.695958,4.71490069 122.361807,5.05128709 122.943381,5.50895404 Z" id="Path"></path>
                <path d="M141.312132,12.7268179 L130.66666,12.7268179 C130.905163,13.4542624 131.366888,14.0859717 131.985467,14.5312241 C132.66755,14.9401879 133.453725,15.1383431 134.246585,15.1008607 C134.837708,15.2161727 135.445305,15.2161727 136.036428,15.1008607 C136.609407,14.8568672 137.148007,14.5374314 137.637904,14.1513868 L140.275756,16.9050282 C139.476212,17.7370414 138.504296,18.3811653 137.429722,18.7915615 C136.355147,19.2017189 135.203937,19.3683603 134.057979,19.2790711 C132.527409,19.3301617 131.007583,19.0040412 129.630284,18.3295972 C128.405781,17.7334603 127.364153,16.8147841 126.615699,15.670736 C125.933376,14.4541107 125.576458,13.0796774 125.579289,11.6823249 C125.575264,10.3148151 125.932899,8.97094072 126.615699,7.78893285 C127.290143,6.65180834 128.269937,5.73002843 129.441917,5.1300717 C130.723958,4.47162337 132.148527,4.1452641 133.586943,4.1805978 C134.951826,4.17319682 136.301908,4.46469987 137.54384,5.03505268 C138.669744,5.66485207 139.612055,6.58161842 140.275756,7.69391384 C141.022061,8.91865638 141.383277,10.3420316 141.312132,11.777344 C141.325501,12.0936761 141.325501,12.4104857 141.312132,12.7268179 Z M131.891164,8.16877016 C131.350654,8.67179795 130.986812,9.33836348 130.855027,10.0679567 L136.884198,10.0679567 C136.752413,9.33836348 136.388571,8.67179795 135.848061,8.16877016 C135.277231,7.73736474 134.582971,7.50411456 133.869612,7.50411456 C133.156254,7.50411456 132.461994,7.73736474 131.891164,8.16877016 Z" id="Shape"></path>
            </g>
        </g>
    </g>
</svg>
