<?xml version="1.0" standalone="no"?>
<!DOCTYPE svg PUBLIC "-//W3C//DTD SVG 20010904//EN"
 "http://www.w3.org/TR/2001/REC-SVG-20010904/DTD/svg10.dtd">
<svg version="1.0" xmlns="http://www.w3.org/2000/svg"
 width="1569.000000pt" height="294.000000pt" viewBox="0 0 1569.000000 294.000000"
 preserveAspectRatio="xMidYMid meet">

<g transform="translate(0.000000,294.000000) scale(0.100000,-0.100000)"
fill="#000000" stroke="none">
<path d="M1114 2180 c-163 -24 -289 -113 -331 -233 -26 -78 -24 -227 4 -290
44 -96 152 -186 358 -297 191 -103 253 -169 241 -256 -11 -82 -49 -114 -134
-114 -56 0 -108 28 -122 66 -6 14 -10 61 -10 105 l0 79 -186 0 -187 0 5 -102
c11 -209 88 -311 278 -370 65 -20 95 -23 220 -22 130 0 153 3 225 27 123 42
196 108 232 210 14 39 18 82 18 177 0 111 -3 130 -23 173 -47 95 -148 174
-371 292 -144 76 -210 134 -218 191 -11 84 39 137 129 136 77 -1 118 -51 118
-144 l0 -58 170 0 170 0 0 72 c0 153 -66 268 -182 318 -100 43 -269 60 -404
40z"/>
<path d="M11348 2184 c-5 -4 -8 -331 -8 -726 l0 -718 140 0 140 0 0 204 0 203
163 6 c129 4 174 9 220 25 96 35 155 73 217 138 150 161 182 388 83 594 -33
68 -141 178 -208 212 -112 57 -138 61 -450 66 -159 2 -293 0 -297 -4z m587
-278 c59 -27 117 -88 136 -142 33 -95 6 -215 -62 -283 -61 -60 -97 -71 -251
-71 l-138 0 0 260 0 260 133 0 c117 0 138 -3 182 -24z"/>
<path d="M5462 2165 c-188 -41 -287 -145 -307 -322 -8 -67 7 -158 36 -214 34
-68 147 -158 324 -258 116 -67 179 -109 210 -143 41 -43 45 -52 45 -98 0 -28
-7 -65 -16 -81 -27 -53 -110 -74 -178 -45 -54 23 -66 49 -66 148 l0 88 -187 0
-186 0 6 -98 c10 -169 65 -267 184 -329 94 -49 143 -58 308 -58 132 0 159 3
224 24 83 28 140 67 188 129 47 62 58 109 58 257 0 116 -2 135 -23 172 -50 95
-128 157 -332 268 -214 116 -250 149 -250 232 0 33 7 50 29 75 27 31 34 33 91
33 57 0 64 -2 91 -33 26 -29 29 -40 29 -97 l0 -65 170 0 170 0 0 79 c0 189
-90 294 -285 336 -86 18 -249 18 -333 0z"/>
<path d="M9544 2165 c-129 -28 -232 -103 -274 -198 -33 -74 -40 -164 -40 -497
0 -347 7 -425 45 -499 25 -51 94 -119 144 -146 102 -52 333 -72 470 -40 145
35 245 117 281 233 18 56 20 93 20 298 l0 234 -240 0 -241 0 3 -97 3 -98 68
-3 69 -3 -4 -135 -3 -136 -32 -28 c-47 -42 -109 -49 -170 -19 -74 37 -74 42
-71 459 3 389 3 387 64 426 31 21 98 23 141 5 48 -20 66 -55 71 -138 l5 -73
169 0 170 0 -4 98 c-3 80 -9 108 -32 160 -47 101 -140 169 -275 198 -82 17
-256 17 -337 -1z"/>
<path d="M2196 2133 c-7 -23 -246 -1318 -246 -1332 0 -17 359 -15 365 2 2 6
43 271 90 587 47 316 88 586 92 600 6 25 16 -35 129 -807 l58 -393 184 0 184
0 -6 28 c-3 15 -56 297 -116 627 -61 330 -115 624 -121 653 l-10 52 -299 0
c-276 0 -299 -1 -304 -17z"/>
<path d="M3346 2138 c-3 -7 -9 -274 -15 -593 -6 -319 -12 -618 -13 -665 l-2
-85 169 0 170 0 3 580 c1 318 6 583 10 587 4 4 56 -254 115 -574 60 -320 111
-586 113 -590 3 -4 81 -8 174 -8 166 0 168 0 173 23 3 12 54 285 114 607 l108
585 6 -550 c3 -302 7 -576 8 -607 l1 -58 171 0 171 0 -6 193 c-4 105 -11 408
-17 672 -6 264 -14 483 -18 488 -4 4 -129 6 -277 5 l-269 -3 -81 -500 c-76
-469 -91 -554 -93 -515 -2 37 -161 1002 -166 1010 -10 16 -545 13 -549 -2z"/>
<path d="M6424 2137 c-3 -8 -4 -257 -2 -553 l3 -539 24 -59 c65 -162 245 -247
491 -232 211 13 334 76 397 204 l28 57 3 568 3 567 -171 0 -170 0 0 -526 c0
-576 0 -572 -59 -607 -57 -34 -155 -15 -183 36 -10 17 -14 148 -18 557 l-5
535 -168 3 c-136 2 -168 0 -173 -11z"/>
<path d="M7750 1480 l0 -670 166 0 166 0 -6 482 c-4 266 -9 512 -12 548 -3 36
-3 62 0 59 4 -3 65 -199 137 -435 71 -236 146 -480 165 -541 l35 -113 239 0
240 0 0 670 0 670 -166 0 -167 0 7 -527 6 -528 -155 525 c-85 289 -155 526
-155 528 0 1 -112 2 -250 2 l-250 0 0 -670z"/>
<path d="M12860 1904 c-109 -29 -178 -70 -259 -152 -117 -118 -171 -255 -171
-432 0 -273 157 -497 403 -575 176 -56 361 -21 486 91 l51 46 0 -71 0 -71 135
0 135 0 0 580 0 580 -135 0 -135 0 0 -67 0 -67 -32 30 c-54 51 -91 72 -171 99
-88 29 -216 33 -307 9z m303 -250 c113 -40 197 -147 218 -276 26 -159 -59
-318 -202 -383 -56 -25 -70 -27 -153 -23 -69 3 -102 10 -134 27 -66 34 -125
93 -158 158 -24 49 -30 72 -32 148 -5 113 18 181 85 255 95 106 240 142 376
94z"/>
<path d="M13750 1894 c0 -3 106 -251 235 -550 l235 -545 -116 -282 c-64 -155
-118 -288 -121 -295 -4 -10 24 -12 133 -10 l138 3 343 840 c189 461 343 841
343 842 0 2 -64 2 -142 1 l-142 -3 -150 -383 c-89 -229 -152 -378 -157 -370
-4 7 -73 173 -154 368 -81 195 -151 363 -156 373 -9 15 -27 17 -149 17 -77 0
-140 -3 -140 -6z"/>
</g>
</svg>
